<svg xmlns="http://www.w3.org/2000/svg" width="512" height="512" viewBox="0 0 512 512" version="1.1">
	<path d="M 236.009 10.090 C 193.937 14.138, 155.364 37.212, 149.892 61.603 C 148.426 68.139, 149.597 71.875, 155.723 80.195 C 158.238 83.612, 161.647 89.353, 163.298 92.954 C 164.950 96.554, 168.081 101.854, 170.257 104.731 C 173.445 108.945, 174.351 111.132, 174.924 115.985 C 175.723 122.762, 178.597 126.690, 185.264 130.119 C 189.463 132.279, 191.054 131.854, 194.743 127.592 C 197.569 124.328, 199.722 124.296, 201.180 127.496 C 202.784 131.017, 200.360 133.377, 193.584 134.894 C 181.179 137.670, 162.883 146.153, 148.387 155.849 C 102.691 186.414, 74.364 238.093, 70.014 298.828 C 66.852 342.987, 79.193 386.032, 105.696 423.285 C 112.960 433.493, 131.945 452.788, 142.500 460.686 C 165.850 478.159, 192.767 489.704, 223 495.214 C 236.918 497.750, 272.248 498.271, 285.500 496.136 C 328.262 489.245, 366.050 468.488, 393.937 436.572 C 404.711 424.242, 409.080 418.344, 415.586 407.348 C 441.317 363.862, 447.886 316.573, 435.351 265.080 C 421.787 209.362, 390.200 168.086, 343.150 144.600 C 331.497 138.784, 321.387 135, 317.496 135 C 314.841 135, 311 131.866, 311 129.700 C 311 128.230, 312.963 126, 314.256 126 C 314.727 126, 316.444 127.458, 318.072 129.240 L 321.031 132.480 325.428 130.147 C 332.122 126.596, 334.224 123.819, 335.100 117.364 C 335.643 113.359, 336.905 110.203, 339.429 106.539 C 341.388 103.694, 344.158 98.494, 345.585 94.984 C 348.141 88.693, 350.594 84.837, 357.650 76.017 C 361.079 71.732, 361.215 71.264, 360.743 65.392 C 360.090 57.256, 355.657 49.018, 347.666 41.091 C 340.491 33.974, 335.373 30.354, 325 25.059 C 300.272 12.438, 268.008 7.011, 236.009 10.090 M 240.842 22.989 C 220.178 24.972, 200.326 31.227, 184.126 40.859 C 176.660 45.299, 168.516 52.131, 166.851 55.352 C 165.870 57.249, 166.077 57.196, 168.620 54.897 C 180.931 43.770, 206.425 32.938, 228.422 29.489 C 243.757 27.084, 275.149 27.843, 289.500 30.966 C 310.095 35.447, 329.009 44.427, 339.413 54.666 C 344.890 60.056, 344.003 57.223, 338.203 50.803 C 327.861 39.355, 302.379 27.880, 279 24.142 C 269.398 22.607, 250.712 22.042, 240.842 22.989 M 237.105 34.484 C 225.690 37.071, 203.844 45.209, 205.092 46.410 C 205.316 46.626, 209.325 45.958, 214 44.925 C 218.675 43.892, 226.325 43.051, 231 43.054 C 239.613 43.061, 240.275 44.105, 232.500 45.420 C 215.470 48.300, 188.322 61.559, 179 71.550 C 175.104 75.724, 175.800 75.454, 184.500 69.410 C 203.135 56.464, 228.901 48.777, 254 48.676 C 272.945 48.599, 285.578 51.324, 300.241 58.648 C 306.838 61.944, 316 69.569, 316 71.764 C 316 72.372, 312.566 71.283, 308.369 69.344 C 282.567 57.423, 246.417 56.279, 220.214 66.555 C 214.337 68.860, 206 73.492, 206 74.452 C 206 74.686, 209.262 73.736, 213.250 72.340 C 250.058 59.456, 297.720 64.846, 319.624 84.369 L 325.252 89.384 329.126 85.231 C 331.596 82.583, 333 80.121, 333 78.440 C 333 70.731, 324.370 62.111, 309.539 55.005 C 300.044 50.456, 281.793 44, 278.429 44 C 277.578 44, 277.114 43.624, 277.399 43.164 C 278.067 42.083, 287.276 42.738, 297.863 44.620 C 302.463 45.438, 306.403 45.931, 306.618 45.715 C 307.431 44.902, 293.717 38.906, 285.280 36.385 C 277.700 34.120, 274.245 33.712, 260 33.399 C 248.055 33.136, 241.735 33.435, 237.105 34.484 M 228.500 88.974 C 210.024 92.681, 192.978 100.194, 185.802 107.795 L 182.500 111.292 187 108.575 C 219.616 88.880, 271.550 86.348, 310.681 102.547 C 315.296 104.457, 320.897 107.173, 323.130 108.582 C 328.671 112.080, 329.018 111.027, 323.798 106.557 C 314.806 98.857, 296.788 91.668, 278.619 88.533 C 266.139 86.379, 240.303 86.606, 228.500 88.974 M 226.827 138.554 C 222.607 139.350, 213.718 141.566, 207.074 143.479 C 177.957 151.859, 156.585 163.777, 137.124 182.486 C 113.561 205.139, 100.748 228.292, 92.568 263 C 85.659 292.317, 85.809 319.524, 93.026 346 C 95.618 355.509, 103.947 372.493, 108.518 377.591 L 112.023 381.500 109.391 375.500 C 104.191 363.650, 101.214 355.359, 99.155 347 C 92.467 319.841, 93.925 288.247, 103.134 260.758 C 106.723 250.048, 112.794 236.461, 113.622 237.288 C 113.949 237.616, 113.064 242.297, 111.655 247.692 C 107.759 262.612, 105.695 278.916, 106.215 290.670 C 106.711 301.887, 108.339 306, 112.283 306 C 115.300 306, 116.326 304.065, 119.477 292.435 C 123.714 276.798, 131.807 257.360, 133.369 259.073 C 133.583 259.308, 132.693 263.100, 131.391 267.500 C 125.523 287.331, 123.447 312.288, 126.050 331.678 C 128.826 352.345, 137.549 375.932, 148.537 392.481 C 155.372 402.776, 171.798 420.267, 183.500 429.710 C 195.889 439.707, 211.055 449.385, 227.488 457.778 C 238.279 463.290, 241.865 465.544, 240.242 465.794 C 237.092 466.279, 204.820 461.384, 195.570 459.018 C 173.329 453.329, 140.142 430.658, 119.861 407.298 C 115.660 402.459, 110.996 397.150, 109.497 395.500 L 106.772 392.500 108.521 395.500 C 117.009 410.055, 133.517 428.145, 148.473 439.279 C 161.903 449.278, 175.977 455.794, 206 465.914 C 220.575 470.827, 233.942 475.422, 235.706 476.126 C 239.785 477.754, 242.007 476.880, 275.500 460.482 C 302.975 447.030, 316.042 438.859, 332.068 425.108 C 360.040 401.105, 378.208 368.180, 383.598 331.723 C 385.703 317.485, 385.010 294.970, 382.032 280.841 C 376.381 254.031, 363.240 227.709, 347.391 211.459 C 328.061 191.637, 304.993 177.170, 278 167.940 C 265.910 163.806, 264.511 162.547, 273 163.443 C 299.924 166.283, 331.073 178.208, 357.500 195.792 C 364.100 200.184, 369.652 203.638, 369.838 203.467 C 370.024 203.297, 369.012 201.170, 367.588 198.741 C 363.917 192.477, 364.352 191.456, 369.250 194.840 C 388.757 208.315, 407.240 241.656, 414.078 275.701 C 417.375 292.119, 417.861 317.745, 415.173 333.506 C 412.636 348.382, 408.224 361.839, 402.152 373.218 C 398.025 380.952, 397.647 382.173, 398.805 384.042 C 400.399 386.616, 399.085 389.089, 389.009 402.476 C 375.491 420.435, 361.028 434.065, 342.500 446.306 C 333.395 452.321, 316.753 461, 314.323 461 C 313.595 461, 313 461.675, 313 462.500 C 313 464.516, 313.346 464.462, 323.059 460.934 C 347.021 452.230, 368.379 437.639, 384.626 418.872 C 428.277 368.454, 436.308 293.880, 405.020 229.500 C 395.443 209.795, 383.315 193.285, 369.526 181.183 C 349.796 163.867, 319.094 149.094, 284.645 140.340 C 275.754 138.081, 272.029 137.722, 254.500 137.434 C 240.031 137.197, 232.378 137.507, 226.827 138.554 M 220 146.612 C 203.759 150.136, 182.586 159.202, 167.500 169.090 C 159.728 174.184, 136.095 196.429, 137.240 197.573 C 137.551 197.884, 142.237 194.804, 147.653 190.728 C 171.155 173.042, 201.837 156.991, 229.250 148.041 C 232.963 146.829, 236 145.649, 236 145.418 C 236 144.534, 226.206 145.265, 220 146.612 M 224 187.665 C 220.971 188.869, 219 191.379, 219 194.033 C 219 197.284, 219.946 198.095, 226.500 200.460 C 233.476 202.978, 241.983 211.747, 245.037 219.570 C 247.019 224.645, 247.416 227.807, 247.789 241.500 C 248.313 260.718, 247.134 268.702, 242.673 276.130 C 236.392 286.589, 223.524 289.999, 212.031 284.250 C 203.489 279.977, 192.647 269.095, 188.476 260.608 C 181.039 245.477, 181.938 226.698, 191.071 206.341 C 195.504 196.461, 194.458 195.306, 187.593 202.500 C 177.548 213.026, 172 227.436, 172 243 C 172 267.309, 184.909 286.448, 209.678 298.860 C 213.076 300.563, 216.563 302.966, 217.428 304.200 C 219.399 307.015, 219.604 319.792, 217.719 322.370 C 217.004 323.347, 212.472 325.237, 207.469 326.643 C 183.253 333.451, 168.344 347.993, 162.507 370.500 C 161.651 373.800, 160.672 381.274, 160.331 387.109 L 159.711 397.719 162.765 402.109 C 164.446 404.524, 167.784 408.406, 170.183 410.735 L 174.546 414.971 174.523 395.735 C 174.502 378.137, 174.699 375.924, 176.837 369.732 C 179.976 360.646, 184.406 354.441, 191.746 348.850 C 200.160 342.441, 207.613 339.739, 217 339.693 C 232.653 339.616, 241.447 346.970, 246.504 364.367 C 247.879 369.096, 248.123 373.549, 247.842 388.848 L 247.500 407.549 244.215 414.218 C 240.655 421.446, 236.590 425.314, 228.521 429.148 C 225.797 430.443, 222.893 432.715, 222.058 434.204 C 220.657 436.702, 220.700 437.122, 222.623 439.704 C 223.768 441.242, 225.866 442.914, 227.286 443.420 C 231.048 444.760, 241.545 439.292, 249.503 431.848 L 255.879 425.884 263.189 432.075 C 267.210 435.479, 273.383 439.631, 276.906 441.300 C 282.818 444.101, 283.513 444.223, 285.906 442.881 C 287.333 442.082, 289.044 440.296, 289.709 438.914 C 291.872 434.415, 290.353 432.223, 282.578 428.632 C 265.885 420.919, 261.315 410.272, 262.236 381.242 C 262.799 363.530, 264.294 357.831, 270.519 349.679 C 282.885 333.484, 311.387 336.986, 326.233 356.524 C 334.170 366.969, 336.431 377.329, 335.720 400 L 335.203 416.500 339.246 412 C 348.743 401.427, 349 400.829, 349 389.297 C 349 368.977, 343.518 354.225, 331.610 342.500 C 323.535 334.550, 315.833 330.246, 303.112 326.574 C 298.499 325.242, 294.074 323.502, 293.279 322.708 C 291.102 320.531, 290.464 310.218, 292.243 305.961 C 293.474 303.015, 295.277 301.606, 303.109 297.469 C 320.685 288.185, 333.007 273.155, 337.485 255.540 C 342.387 236.255, 334.313 211.232, 319.042 198.382 C 317.323 196.935, 315.675 195.992, 315.380 196.287 C 315.085 196.581, 316.467 200.511, 318.449 205.021 C 324.128 217.937, 326 226.020, 326 237.625 C 326 259.374, 316.254 275.240, 297.421 284.152 C 286.232 289.446, 276.902 288.021, 269.603 279.903 C 262.416 271.909, 261.500 267.908, 261.500 244.500 L 261.500 224.500 264.608 218 C 268.623 209.606, 274.727 203.649, 282.275 200.758 C 289.151 198.125, 290.663 196.155, 288.795 192.260 C 284.138 182.547, 268.213 188.319, 257.903 203.457 C 256.582 205.398, 254.991 206.989, 254.369 206.993 C 253.746 206.997, 251.991 205.313, 250.467 203.250 C 245.785 196.913, 240.673 191.920, 236.842 189.942 C 232.837 187.874, 226.362 186.726, 224 187.665 M 248.487 293.332 C 245.744 295.164, 240.745 298.121, 237.378 299.903 C 230.132 303.737, 229 305.753, 229 314.825 C 229 322.730, 230.289 325.086, 236.285 328.145 C 242.974 331.558, 246.870 335.118, 250.624 341.250 C 252.561 344.413, 254.262 347, 254.406 347 C 254.550 347, 256.375 344.521, 258.461 341.491 C 262.348 335.848, 268.643 330.563, 275.194 327.442 C 279.753 325.271, 281.512 321.439, 281.465 313.777 C 281.424 306.894, 279.362 303.602, 272.911 300.117 C 270.485 298.807, 265.769 295.994, 262.430 293.867 C 259.092 291.740, 255.711 290, 254.917 290 C 254.123 290, 251.229 291.499, 248.487 293.332" stroke="none" fill="black" fill-rule="evenodd"/>
</svg>