<svg xmlns="http://www.w3.org/2000/svg" width="512" height="512" viewBox="0 0 512 512" version="1.1">
	<path d="M 326.053 29.555 C 317.268 33.645, 310.062 41.912, 302.993 56.014 C 299.666 62.652, 296.525 67.824, 296.014 67.509 C 295.503 67.193, 294.333 68.412, 293.413 70.217 C 292.493 72.023, 291.095 74.175, 290.305 75 C 289.516 75.825, 288.112 78.075, 287.185 80 L 285.500 83.500 264 83.516 C 252.175 83.525, 241.920 83.899, 241.211 84.349 C 239.559 85.396, 212.787 86.343, 207.447 85.544 C 204.255 85.066, 202.996 84.252, 201.522 81.718 C 198.361 76.285, 192.495 70.905, 191.173 72.227 C 190.313 73.087, 188.593 71.791, 184.264 67.022 C 181.094 63.530, 177.406 59.059, 176.068 57.086 C 174.731 55.114, 171.277 51.025, 168.393 48 C 165.509 44.975, 162.103 41.307, 160.825 39.849 C 157.268 35.794, 148.981 31, 145.527 31 C 143.832 31, 141.442 31.702, 140.217 32.561 C 134.309 36.699, 132.966 45.856, 132.969 82 C 132.969 96.575, 132.545 110.750, 132.025 113.500 C 131.506 116.250, 130.404 121.650, 129.577 125.500 C 128.750 129.350, 128.057 134.503, 128.037 136.950 C 128.008 140.411, 127.733 141.133, 126.800 140.200 C 124.375 137.775, 124.014 139.108, 126.028 143.055 C 127.479 145.898, 127.709 147.058, 126.798 146.936 C 126.084 146.841, 124.375 146.869, 123 146.998 C 121.213 147.165, 120.999 147.362, 122.250 147.689 C 123.212 147.941, 124 148.590, 124 149.132 C 124 149.674, 123.550 149.840, 123 149.500 C 121.481 148.561, 121.805 150.594, 123.384 151.903 C 125.093 153.322, 124.545 164.986, 122.708 166.293 C 121.858 166.897, 121.828 167.288, 122.605 167.611 C 123.212 167.863, 123.514 169.093, 123.275 170.344 C 122.975 171.910, 123.969 173.971, 126.463 176.956 C 131.677 183.196, 131.819 183.695, 130.860 192.354 C 130.322 197.211, 130.368 202.362, 130.982 205.854 C 131.527 208.959, 132.092 212.239, 132.237 213.143 C 132.537 215.017, 122.540 224.057, 110.767 232.559 C 106.513 235.630, 101.508 239.925, 99.644 242.103 C 93.277 249.541, 91.532 260.688, 95.528 268.391 C 96.337 269.952, 97 271.340, 97 271.475 C 97 271.611, 94.188 273.548, 90.750 275.780 C 84.353 279.935, 76.753 287, 78.681 287 C 79.272 287, 80.337 286.299, 81.049 285.441 C 82.247 283.998, 91.899 276.394, 94.750 274.648 C 95.437 274.226, 96.479 274.178, 97.064 274.540 C 97.690 274.926, 96.448 276.636, 94.057 278.683 C 86.388 285.248, 82.108 296.044, 83.626 305 C 84.364 309.353, 84.410 309.236, 85.047 301.406 C 85.802 292.124, 89.083 284.891, 94.827 279.847 L 98.261 276.832 102.880 281.319 C 106.370 284.708, 108.570 285.978, 111.874 286.512 C 115.085 287.030, 116.476 286.856, 117.108 285.859 C 117.770 284.814, 117.973 284.927, 117.985 286.346 C 117.993 287.361, 117.109 289.443, 116.019 290.973 C 114.069 293.712, 111 303.668, 111 307.257 C 111 309.028, 110.913 309.029, 108.546 307.297 C 106.036 305.458, 102 297.506, 102 294.398 C 102 293.446, 101.747 292.920, 101.437 293.229 C 100.556 294.110, 102.988 306.076, 104.733 309.451 C 106.146 312.182, 106.372 312.291, 106.987 310.538 C 107.664 308.607, 107.681 308.607, 108.817 310.544 C 109.738 312.116, 110.140 312.232, 110.861 311.137 C 111.577 310.049, 111.845 310.034, 112.188 311.064 C 112.919 313.257, 114.885 311.120, 116.195 306.708 L 117.445 302.500 117.973 310.174 C 118.407 316.489, 118.929 318.303, 120.924 320.424 C 122.258 321.841, 123.720 323, 124.174 323 C 124.628 323, 125.875 323.875, 126.944 324.944 C 128.014 326.014, 130.444 327.180, 132.345 327.537 L 135.801 328.185 135.287 337.843 C 135.005 343.154, 135.208 349.075, 135.739 351 C 136.475 353.667, 136.590 352.337, 136.223 345.408 C 135.915 339.607, 136.187 334.962, 136.975 332.576 C 138.063 329.279, 138.505 328.910, 140.703 329.461 C 144.974 330.533, 142.821 327.907, 138.129 326.321 C 131.781 324.175, 123.244 318.372, 121.515 315.028 C 120.682 313.417, 120 310.727, 120 309.050 C 120 306.483, 120.387 306, 122.441 306 C 123.784 306, 125.165 306.457, 125.510 307.016 C 125.856 307.575, 126.577 307.762, 127.113 307.430 C 127.649 307.099, 128.743 307.372, 129.544 308.036 C 130.682 308.981, 131.318 308.981, 132.456 308.036 C 134.522 306.322, 136.274 307.773, 135.562 310.609 C 134.906 313.222, 136.685 313.985, 137.638 311.500 C 138.459 309.362, 142.369 309.645, 144.497 311.996 C 145.817 313.455, 146.646 313.709, 147.576 312.937 C 148.530 312.145, 149.517 312.831, 151.534 315.691 C 154.023 319.220, 154.394 318.354, 152.440 313.576 C 151.777 311.956, 151.956 311.779, 153.576 312.452 C 154.634 312.891, 157.075 313.621, 159 314.074 C 160.925 314.527, 164.961 315.596, 167.968 316.449 C 174.467 318.292, 184.116 318.484, 185.797 316.803 C 186.455 316.145, 189.464 315.582, 192.482 315.553 C 196.541 315.514, 197.909 315.145, 197.735 314.139 C 197.587 313.282, 198.616 312.683, 200.511 312.524 C 202.167 312.384, 206.442 310.793, 210.011 308.988 C 213.580 307.182, 217.625 305.395, 219 305.017 C 221.400 304.356, 221.320 304.233, 217 301.946 C 213.244 299.958, 212.861 299.507, 214.682 299.221 C 215.883 299.033, 218.133 299.523, 219.682 300.312 C 221.442 301.207, 223.251 301.443, 224.500 300.942 C 225.600 300.501, 227.850 300.102, 229.500 300.055 C 231.439 300, 232.048 299.683, 231.222 299.159 C 230.313 298.582, 231.686 296.833, 235.983 293.096 C 239.304 290.207, 241.765 287.429, 241.452 286.922 C 241.138 286.415, 238.771 285.921, 236.191 285.825 L 231.500 285.651 235.745 285.268 C 239.294 284.948, 240.094 284.474, 240.620 282.378 C 241.098 280.472, 240.585 279.176, 238.482 276.981 C 235.653 274.028, 230.267 270.999, 227.849 271.001 C 227.107 271.001, 228.334 271.909, 230.575 273.019 C 234.766 275.093, 241.093 282.017, 237.559 280.661 C 236.600 280.293, 234.619 279.738, 233.157 279.428 C 230.606 278.886, 230.578 278.926, 232.441 280.432 C 234.348 281.973, 234.345 282, 232.249 282 C 230.653 282, 230.212 282.505, 230.500 284 C 230.735 285.222, 230.347 286, 229.502 286 C 227.570 286, 226.492 288.068, 227.953 288.971 C 228.669 289.413, 227.496 289.985, 225.081 290.371 C 220.696 291.072, 219.764 292.473, 223 293.500 C 224.100 293.849, 225 294.554, 225 295.067 C 225 296.267, 223.778 296.246, 220.478 294.992 C 218.404 294.203, 216.836 294.421, 213.286 295.992 C 210.789 297.096, 208.393 298, 207.962 298 C 207.531 298, 203.876 299.525, 199.839 301.389 C 185.801 307.873, 182.724 309, 179.073 309 C 177.053 309, 174.973 309.427, 174.450 309.950 C 173.579 310.821, 171.459 310.564, 162.250 308.473 C 160.585 308.095, 159.984 308.422, 159.937 309.731 C 159.887 311.109, 159.673 311.003, 158.969 309.250 C 158.338 307.681, 157.223 306.994, 155.282 306.982 C 153.752 306.972, 148.675 305.344, 144 303.365 C 139.325 301.387, 133.081 298.741, 130.125 297.486 C 124.416 295.063, 119.516 290.951, 120.133 289.101 C 120.348 288.457, 121.668 289.064, 123.252 290.533 C 124.764 291.934, 126 292.639, 126 292.099 C 126 291.560, 125.543 290.835, 124.984 290.490 C 124.425 290.144, 124.266 289.379, 124.631 288.788 C 125.026 288.148, 125.813 288.704, 126.577 290.162 C 127.282 291.508, 129.578 293.438, 131.680 294.452 C 133.781 295.465, 136.323 296.704, 137.328 297.205 C 138.503 297.789, 139.635 297.718, 140.494 297.005 C 141.519 296.154, 141.972 296.336, 142.430 297.781 C 143.116 299.940, 146 300.360, 146 298.301 C 146 294.929, 142.833 289.964, 138.641 286.763 L 134.076 283.277 136.644 280.889 C 141.790 276.103, 150.335 260.001, 148.632 258.299 C 148.301 257.968, 148.716 257.197, 149.554 256.584 C 151.451 255.197, 153.031 240.245, 151.158 241.402 C 150.521 241.796, 150 242.991, 150 244.059 C 150 247.313, 148.132 246.222, 147.447 242.568 C 146.217 236.015, 136.309 231.883, 127.624 234.301 C 125.355 234.932, 124.861 234.806, 125.284 233.701 C 125.721 232.564, 125.039 232.453, 121.661 233.107 C 119.372 233.550, 116.162 233.932, 114.527 233.956 L 111.555 234 114.027 232.313 C 115.387 231.386, 118.750 228.628, 121.500 226.185 C 124.250 223.742, 130.325 219.035, 135 215.725 C 146.390 207.659, 155.949 198.643, 159.017 193.071 C 162.224 187.248, 167.549 173.556, 168.378 169 L 169.015 165.500 167.258 168.098 C 165.419 170.816, 163 170.931, 163 168.300 C 163 167.259, 162.358 166.935, 161 167.290 C 158.818 167.860, 158.231 166.525, 160.250 165.583 C 161.174 165.152, 161.196 164.855, 160.336 164.445 C 159.523 164.058, 159.443 162.943, 160.068 160.761 C 160.562 159.040, 160.837 157.503, 160.679 157.345 C 160.102 156.768, 154.967 167.560, 154.895 169.500 C 154.773 172.801, 152.048 161.821, 151.917 157.500 C 151.800 153.657, 151.767 153.619, 151.071 156.521 C 150.672 158.182, 149.552 160.755, 148.580 162.237 C 146.816 164.929, 146.819 164.939, 151.324 170.716 C 155.441 175.996, 156.531 178.831, 156.047 183 C 155.938 183.939, 155.529 183.642, 154.952 182.206 C 153.952 179.712, 148.431 176.940, 144.782 177.100 C 142.559 177.197, 142.564 177.220, 145 178 C 147.336 178.748, 147.280 178.807, 144.143 178.900 C 141.547 178.977, 140.916 178.660, 141.362 177.500 C 141.698 176.622, 141.376 176, 140.585 176 C 139.842 176, 138.998 176.900, 138.710 178 C 137.464 182.764, 132.475 178.821, 131.422 172.241 C 130.864 168.749, 131.052 167.917, 132.528 167.351 C 135.337 166.273, 143.039 157.639, 142.062 156.662 C 141.566 156.166, 141.801 154.327, 142.608 152.395 C 143.389 150.528, 143.800 149, 143.523 149 C 143.246 149, 143.652 148.213, 144.426 147.250 C 153.177 136.361, 155.002 133.779, 155.015 132.264 C 155.027 130.898, 155.224 130.805, 155.887 131.852 C 156.558 132.911, 157.096 132.701, 158.372 130.879 C 159.267 129.601, 160 127.950, 160 127.210 C 160 126.320, 160.677 126.080, 162 126.500 C 163.645 127.022, 164 126.680, 164 124.567 C 164 121.561, 164.765 121.322, 166.608 123.750 C 167.797 125.317, 167.940 125.148, 167.968 122.143 C 167.992 119.587, 168.356 118.922, 169.490 119.358 C 170.483 119.739, 171.180 119.130, 171.582 117.531 C 171.965 116.004, 172.695 115.329, 173.592 115.674 C 174.443 116, 175 115.578, 175 114.607 C 175 113.685, 175.824 113, 176.933 113 C 178.009 113, 179.156 112.082, 179.523 110.928 C 179.918 109.682, 180.743 109.071, 181.590 109.396 C 182.366 109.694, 183 109.501, 183 108.969 C 183 108.436, 183.653 108, 184.450 108 C 185.248 108, 186.260 107.402, 186.700 106.672 C 187.140 105.941, 189.075 104.484, 191 103.433 C 192.925 102.382, 195.287 100.885, 196.250 100.106 C 197.748 98.894, 198.005 98.892, 198.032 100.095 C 198.053 101.053, 198.545 100.863, 199.575 99.500 C 200.406 98.400, 201.404 97.439, 201.793 97.365 C 204.488 96.853, 207 95.615, 207 94.800 C 207 94.268, 207.558 94.019, 208.240 94.247 C 210.313 94.938, 218.251 92.113, 220.698 89.814 L 223 87.651 223 89.744 C 223 92.872, 221.856 95.385, 221.036 94.058 C 220.163 92.645, 206.893 105.298, 204.646 109.687 C 202.460 113.955, 201.153 114.589, 200.147 111.869 C 199.428 109.925, 199.081 110.442, 197.671 115.554 C 196.256 120.681, 196.099 120.915, 196.527 117.250 C 196.822 114.723, 196.613 113, 196.012 113 C 195.455 113, 195 113.502, 195 114.116 C 195 114.730, 193.286 116.868, 191.191 118.866 C 188.916 121.037, 186.231 125.236, 184.522 129.296 C 181.182 137.230, 180.012 138.390, 179.970 133.809 C 179.920 128.385, 178.335 132.634, 177.475 140.500 C 176.082 153.232, 175.327 156.807, 170.626 172.958 C 168.632 179.811, 167 185.803, 167 186.274 C 167 186.745, 165.474 190.433, 163.610 194.469 C 159.335 203.720, 154.770 208.660, 139.782 220.246 L 127.812 229.500 132.656 230.146 C 135.320 230.501, 138.175 231.062, 139 231.393 C 139.922 231.763, 141.981 230.589, 144.346 228.344 C 147.403 225.442, 148.374 224.981, 149.081 226.096 C 149.796 227.226, 149.972 227.158, 149.985 225.750 C 149.993 224.787, 150.477 224, 151.059 224 C 151.641 224, 151.840 224.450, 151.500 225 C 151.160 225.550, 151.359 226, 151.941 226 C 152.523 226, 153.056 225.550, 153.125 225 C 153.373 223.018, 153.543 222.481, 154.297 221.294 C 154.719 220.630, 155.612 220.286, 156.282 220.528 C 158.128 221.195, 173.297 211.582, 173.595 209.557 C 173.821 208.012, 173.292 207.879, 169.301 208.477 L 164.750 209.160 167.039 205.830 C 168.297 203.999, 171.452 200.007, 174.050 196.960 C 176.647 193.913, 178.997 190.538, 179.270 189.460 C 179.747 187.584, 179.773 187.588, 179.884 189.550 C 179.948 190.678, 179.441 192.159, 178.758 192.842 C 177.770 193.830, 177.807 194.263, 178.944 194.965 C 180.168 195.722, 180.172 196.088, 178.973 197.532 C 177.758 198.996, 177.821 199.396, 179.457 200.592 C 181.297 201.938, 181.297 202.015, 179.419 204.117 C 177.523 206.240, 177.524 206.259, 179.500 205.708 C 185.168 204.125, 188 203.894, 188 205.014 C 188 205.659, 187.105 206.421, 186.011 206.707 C 182.995 207.496, 184.666 209, 188.559 209 C 190.452 209, 192 209.414, 192 209.921 C 192 210.427, 193.319 211.131, 194.931 211.485 C 196.543 211.839, 198.455 212.861, 199.181 213.756 C 200.143 214.943, 200.162 215.181, 199.250 214.633 C 198.563 214.220, 198.012 214.246, 198.027 214.691 C 198.042 215.136, 199.842 216.603, 202.027 217.951 C 204.617 219.549, 206 221.133, 206 222.501 C 206 225.768, 208.050 227.299, 209.633 225.215 C 210.856 223.606, 210.938 223.611, 210.968 225.309 C 210.987 226.352, 211.460 226.834, 212.087 226.446 C 212.685 226.077, 212.956 224.941, 212.690 223.921 C 212.284 222.370, 212.758 222.089, 215.603 222.196 C 217.471 222.267, 219 222.701, 219 223.162 C 219 223.623, 219.477 224, 220.059 224 C 220.641 224, 220.843 223.555, 220.507 223.011 C 220.156 222.443, 220.561 222.278, 221.461 222.623 C 222.321 222.954, 223.676 222.684, 224.472 222.023 C 225.389 221.262, 227.122 221.084, 229.209 221.536 C 232.483 222.246, 232.490 222.239, 230.641 220.175 L 228.781 218.101 232.641 219.159 C 234.763 219.740, 237.340 220.661, 238.366 221.205 C 239.788 221.959, 240.122 221.874, 239.771 220.847 C 239.451 219.909, 240.857 219.188, 244.405 218.473 C 248.948 217.557, 249.484 217.178, 249.352 214.973 C 249.271 213.613, 249.833 212.140, 250.602 211.700 C 252.481 210.625, 252.377 209, 250.429 209 C 249.003 209, 249.003 208.854, 250.435 207.422 C 251.303 206.554, 252.493 204.947, 253.080 203.851 C 254.129 201.890, 254.101 201.887, 251.323 203.675 L 248.500 205.493 251.257 202.162 C 252.773 200.330, 253.759 198.419, 253.448 197.915 C 253.137 197.412, 253.359 197, 253.941 197 C 254.523 197, 254.940 196.663, 254.866 196.250 C 254.793 195.838, 255.071 194.053, 255.484 192.285 C 256.224 189.122, 256.321 189.074, 261.597 189.285 C 266.194 189.469, 266.880 189.749, 266.411 191.250 C 265.745 193.385, 266.964 193.494, 269.559 191.532 C 272.070 189.632, 273.083 189.621, 272.362 191.500 C 271.800 192.964, 272.944 193.457, 275.919 193.036 C 277.043 192.876, 276.977 193.387, 275.598 195.490 C 273.898 198.086, 273.904 198.122, 275.863 197.073 C 279.004 195.392, 280.216 195.745, 279.461 198.122 C 278.848 200.054, 279.102 200.207, 282.303 199.833 C 285.650 199.442, 285.750 199.518, 284.409 201.434 C 282.295 204.451, 282.653 204.868, 286.596 203.978 L 290.191 203.167 288.077 205.418 L 285.964 207.668 291.724 207.190 C 297.196 206.736, 297.409 206.803, 295.992 208.530 C 294.614 210.207, 294.680 210.301, 296.842 209.743 C 299.146 209.149, 299.154 209.173, 297.342 211.241 C 296.177 212.571, 296.046 213.022, 296.984 212.468 C 299.040 211.255, 306 211.001, 306 212.139 C 306 212.651, 307.012 212.531, 308.250 211.871 C 310.290 210.784, 310.372 210.828, 309.128 212.336 C 307.918 213.803, 308.025 214, 310.033 214 C 312.289 214, 312.292 214.020, 310.405 216.190 C 308.614 218.249, 308.769 218.228, 313 215.834 C 315.475 214.434, 319.075 213.008, 321 212.666 L 324.500 212.043 321.500 214.517 L 318.500 216.990 321.500 217.113 C 323.150 217.181, 324.837 217.184, 325.250 217.118 C 325.663 217.053, 326 217.417, 326 217.927 C 326 218.436, 326.563 219.047, 327.250 219.283 C 327.938 219.520, 327.729 219.599, 326.787 219.460 C 325.844 219.320, 324.494 219.908, 323.787 220.764 C 322.665 222.122, 322.849 222.256, 325.215 221.807 L 327.929 221.291 325.896 224.145 L 323.864 227 327.099 227 L 330.333 227 326.417 230.563 L 322.500 234.127 327 233.560 L 331.500 232.994 328.059 236.153 L 324.619 239.313 327.393 238.616 C 329.214 238.159, 329.947 238.277, 329.525 238.960 C 328.604 240.450, 330.170 240.186, 332.441 238.468 C 333.509 237.661, 334.856 237, 335.436 237 C 336.015 237, 333.899 238.644, 330.732 240.654 C 327.565 242.664, 325.163 244.496, 325.393 244.727 C 325.624 244.957, 327.517 244.675, 329.600 244.100 C 334.995 242.610, 334.778 243.294, 328.997 246.001 C 324.242 248.228, 322.035 250.698, 325.750 249.633 C 326.712 249.358, 329.750 248.850, 332.500 248.505 C 337.269 247.908, 350.643 243.859, 353.936 242.016 C 354.879 241.488, 352.933 241.348, 348.996 241.661 L 342.500 242.176 345.500 240.095 C 347.150 238.950, 348.050 237.996, 347.500 237.975 C 346.950 237.954, 347.374 237.276, 348.441 236.468 C 349.509 235.661, 349.873 235, 349.250 235 C 348.627 235, 347.840 235.450, 347.500 236 C 347.160 236.550, 346.432 237, 345.882 237 C 345.332 237, 345.207 236.474, 345.605 235.830 C 346.109 235.015, 345.748 234.879, 344.414 235.381 C 343.361 235.778, 344.075 234.748, 346 233.092 C 347.925 231.436, 348.964 230.063, 348.309 230.041 C 347.654 230.018, 346.886 230.375, 346.603 230.833 C 346.320 231.292, 344.729 231.467, 343.069 231.223 L 340.050 230.780 342.275 228.814 L 344.500 226.848 342 227.374 C 339.679 227.863, 339.633 227.801, 341.347 226.519 C 342.363 225.759, 343.938 225.365, 344.847 225.644 C 346.259 226.077, 346.247 225.988, 344.763 225.033 C 343.496 224.218, 342.415 224.213, 340.763 225.014 L 338.500 226.113 340.750 224.146 C 343.574 221.678, 343.660 220.576, 340.914 222.046 C 339.767 222.660, 338.578 222.911, 338.271 222.605 C 337.965 222.298, 338.491 221.749, 339.441 221.384 C 340.693 220.904, 340.833 220.515, 339.949 219.968 C 339.097 219.442, 339.449 218.824, 341.115 217.919 L 343.500 216.623 341 215.987 L 338.500 215.351 342 213.179 L 345.500 211.007 342.083 211.004 L 338.667 211 342.583 207.542 C 345.831 204.674, 346.158 204.071, 344.500 204.010 C 342.526 203.937, 342.526 203.917, 344.441 202.468 C 345.855 201.399, 345.991 200.983, 344.941 200.937 C 344.149 200.902, 344.614 200.429, 345.976 199.885 C 347.339 199.342, 349.380 199.130, 350.513 199.414 C 352.665 199.954, 355 204.905, 355 208.929 C 355 210.870, 355.379 211.122, 357.500 210.589 C 360.812 209.758, 360.656 210.997, 357.010 214.490 C 353.689 217.673, 353.684 218.775, 357 217 C 359.969 215.411, 360.281 216.082, 358.527 220.281 L 357.028 223.870 360.609 223.289 L 364.190 222.708 362.002 226.996 L 359.814 231.285 363.907 230.631 C 368.455 229.904, 369.166 230.943, 365.750 233.326 C 363.657 234.786, 363.636 234.899, 365.450 234.948 C 366.967 234.988, 367.133 235.267, 366.200 236.200 C 364.143 238.257, 364.849 239.999, 367.750 240.023 C 370.466 240.046, 370.442 240.101, 365.812 244.520 L 361.124 248.993 363.812 249.703 C 365.290 250.093, 369.579 250.425, 373.342 250.441 L 380.184 250.469 376.342 253.715 C 374.229 255.500, 369.800 258.072, 366.500 259.432 L 360.500 261.903 367 261.995 C 370.575 262.046, 376.200 262.656, 379.500 263.350 L 385.500 264.614 379.056 266.807 C 375.512 268.013, 370.787 269.052, 368.556 269.116 C 363.890 269.249, 365.119 269.615, 373.250 270.510 C 376.413 270.859, 379 271.610, 379 272.179 C 379 272.748, 378.326 272.955, 377.501 272.639 C 376.677 272.322, 374.989 272.445, 373.751 272.911 C 371.599 273.722, 371.653 273.826, 375 275.288 L 378.500 276.817 373.500 276.322 C 370.750 276.050, 367.375 276.288, 366 276.850 C 363.853 277.729, 363.782 277.885, 365.500 277.959 C 366.600 278.006, 368.625 278.937, 370 280.028 L 372.500 282.012 368.588 280.425 C 365.958 279.358, 363.501 279.069, 361.088 279.544 L 357.500 280.249 361.500 282.050 L 365.500 283.852 356.500 284.036 L 347.500 284.221 353 285.606 C 356.025 286.368, 361.101 287.284, 364.281 287.641 C 372.997 288.621, 372.124 289.888, 363.157 289.273 C 353.566 288.616, 339.082 289.805, 341.102 291.084 C 341.871 291.571, 344.075 292.026, 346 292.096 C 348.833 292.199, 348.167 292.542, 342.500 293.897 L 335.500 295.571 347 298.268 C 353.325 299.752, 360.208 301.252, 362.297 301.603 C 364.385 301.953, 365.900 302.433, 365.665 302.668 C 365.429 302.904, 359.671 302.368, 352.868 301.478 C 345.513 300.515, 338.676 300.145, 336 300.567 C 332.022 301.193, 331.790 301.361, 334 302.020 C 335.375 302.430, 339.425 304.168, 343 305.882 C 346.575 307.596, 350.138 308.999, 350.917 308.999 C 351.696 309, 352.092 309.242, 351.796 309.537 C 351.501 309.832, 347.060 309.157, 341.927 308.037 C 331.027 305.658, 330.712 305.634, 333.974 307.441 C 336.389 308.778, 336.329 308.826, 331.474 309.484 C 328.738 309.854, 324.057 310.833, 321.071 311.659 L 315.642 313.160 319.687 314.971 C 321.912 315.967, 325.174 317.099, 326.938 317.486 C 328.701 317.873, 329.951 318.382, 329.717 318.616 C 329.482 318.851, 324.642 318.141, 318.960 317.040 C 308.590 315.030, 305.225 315.019, 310.611 317.014 C 320.232 320.576, 322.002 321.331, 321.619 321.714 C 321.123 322.211, 303.152 319.212, 301.868 318.418 C 301.390 318.123, 301.001 318.246, 301.003 318.691 C 301.004 319.136, 302.353 320.400, 304 321.500 C 309.218 324.985, 307.876 325.203, 297.750 322.514 C 296.238 322.112, 295 322.051, 295 322.378 C 295 323.261, 301.916 325.989, 304.372 326.074 C 305.542 326.115, 308.300 327.014, 310.500 328.072 C 314.826 330.152, 314.572 330.120, 302.254 327.029 C 297.719 325.891, 292.882 325.243, 291.504 325.588 C 289.609 326.064, 289 325.825, 289 324.608 C 289 323.724, 288.315 323, 287.477 323 C 286.144 323, 286.158 323.311, 287.592 325.500 C 288.752 327.271, 288.869 328, 287.993 328 C 287.063 328, 287.097 328.417, 288.128 329.675 C 289.322 331.132, 289.143 331.117, 286.750 329.560 C 285.131 328.506, 284 328.229, 284 328.885 C 284 329.498, 283.438 329.888, 282.750 329.750 C 281.083 329.417, 281.736 333.002, 283.752 335.257 C 285.226 336.905, 285.111 336.977, 281.912 336.408 C 280.035 336.074, 277.038 335.432, 275.250 334.981 C 272.340 334.247, 271.993 334.388, 271.930 336.331 C 271.862 338.425, 271.831 338.431, 271.035 336.500 C 270.250 334.598, 270.163 334.622, 269.240 337 C 268.271 339.497, 268.269 339.495, 267.534 336.151 C 266.662 332.184, 265.794 332.895, 264.057 339 C 262.586 344.171, 259.562 350.429, 256.863 353.885 L 255 356.270 254.997 353.885 C 254.995 351.727, 254.617 351.929, 251.040 356 C 246.466 361.204, 245.829 360.727, 249.646 354.958 C 254.372 347.818, 251.507 349.776, 243.375 359.245 C 239.003 364.335, 232.890 370.522, 229.791 372.994 C 226.691 375.466, 224.328 377.662, 224.540 377.873 C 225.092 378.425, 239.567 371.438, 243.329 368.803 C 246.084 366.874, 245.866 367.332, 241.673 372.291 C 239.018 375.431, 237.090 378, 237.389 378 C 237.688 378, 239.517 377.244, 241.454 376.321 C 243.390 375.397, 245.269 374.935, 245.628 375.294 C 245.987 375.653, 244.410 378.424, 242.125 381.451 L 237.970 386.954 244.465 382.414 C 248.038 379.916, 251.221 377.452, 251.539 376.937 C 252.547 375.306, 254.155 375.926, 253.649 377.750 C 253.382 378.712, 252.898 382.200, 252.572 385.500 L 251.981 391.500 254.741 386.302 L 257.500 381.103 259.176 385.052 C 261.265 389.975, 262.785 390.099, 263.190 385.378 L 263.500 381.756 266 383.800 L 268.500 385.844 269.518 382.882 L 270.537 379.920 274.518 382.932 C 279.080 386.383, 281.562 386.961, 280.176 384.250 C 279.684 383.288, 279.007 381.050, 278.672 379.279 C 278.336 377.507, 276.917 374.245, 275.518 372.029 C 274.119 369.813, 273.345 368, 273.796 368 C 274.927 368, 286.161 374.788, 287.964 376.561 C 289.243 377.818, 288.994 378, 285.992 378 L 282.555 378 287.204 382.250 C 290.835 385.569, 292.769 388.635, 296.036 396.250 C 299.984 405.455, 302.028 408.206, 301.978 404.250 C 301.947 401.789, 298.652 394.808, 295.050 389.573 C 291.390 384.253, 291.072 382.433, 294.086 384.046 C 297.149 385.685, 297.392 384.689, 295.049 380.097 C 293.222 376.515, 293.163 376, 294.578 376 C 295.469 376, 297.567 377.462, 299.241 379.250 C 302.106 382.310, 302.241 382.353, 301.538 380 C 301.128 378.625, 300.172 376.516, 299.415 375.314 C 297.202 371.802, 294 365.980, 294 365.470 C 294 365.211, 294.843 365, 295.874 365 C 296.905 365, 299.711 367.025, 302.109 369.500 C 306.837 374.378, 308.530 375.134, 307.710 372 C 307.423 370.900, 307.539 370, 307.969 370 C 309.300 370, 310.005 375.838, 309.885 385.875 C 309.801 392.933, 309.575 394.497, 309.041 391.739 C 308.221 387.510, 307.243 386.025, 306.650 388.107 C 305.198 393.205, 303.498 403.771, 302.968 411 C 302.625 415.675, 302.247 418.825, 302.127 418 C 302.008 417.175, 301.299 415.150, 300.552 413.500 C 299.264 410.653, 299.202 410.860, 299.341 417.565 C 299.472 423.870, 299.088 425.428, 295.774 432.065 C 292.518 438.583, 283.240 450.930, 280.934 451.814 C 277.802 453.015, 265.748 423.721, 262.352 406.656 C 261.034 400.038, 259.807 394.473, 259.623 394.290 C 259.440 394.106, 259.011 396.621, 258.670 399.879 C 257.376 412.259, 250.108 427.250, 234.370 450 C 224.792 463.844, 222.018 469.013, 222.023 473 C 222.028 476.361, 222.187 476.208, 226.038 469.144 C 228.243 465.098, 232.625 458.441, 235.774 454.351 C 250.478 435.255, 255.125 426.521, 258.038 412.500 L 259.285 406.500 260.540 412.500 C 262.488 421.820, 271.119 443.922, 275.901 451.836 L 280.218 458.981 283.042 456.970 C 290.676 451.534, 299.011 439.713, 302.208 429.787 C 303.410 426.054, 304.738 423, 305.158 423 C 305.579 423, 306.475 421.087, 307.149 418.750 L 308.376 414.500 308.995 418 L 309.614 421.500 310.802 417.500 C 311.455 415.300, 312.007 412.825, 312.030 412 C 312.055 411.097, 312.609 411.472, 313.423 412.942 C 314.761 415.357, 314.792 415.331, 316.336 410.442 L 317.896 405.500 317.334 411.500 C 316.950 415.604, 317.097 417.184, 317.801 416.500 C 318.367 415.950, 319.024 414.375, 319.261 413 C 319.651 410.737, 319.869 410.919, 321.567 414.928 C 323.316 419.055, 323.490 419.191, 324.122 416.928 C 324.495 415.593, 324.848 412.250, 324.905 409.500 L 325.010 404.500 327.484 407.500 C 336.047 417.885, 337.113 427.395, 331.509 443.436 C 329.600 448.900, 328.159 453.493, 328.308 453.641 C 328.846 454.179, 357.228 446.978, 364.771 444.391 C 373.373 441.440, 384.077 436.343, 385.288 434.621 C 386.204 433.319, 385.304 414.489, 383.872 405 C 383.332 401.425, 382.074 397.111, 381.076 395.414 L 379.260 392.327 381.779 392.809 C 384.982 393.421, 384.031 391.643, 379.641 388.813 C 377.913 387.699, 377.400 387.124, 378.500 387.535 C 379.600 387.946, 381.736 388.495, 383.246 388.754 L 385.992 389.226 384.397 385.363 L 382.802 381.500 385.809 384.349 C 389.651 387.989, 393.566 396.730, 396.306 407.790 C 398.174 415.326, 398.552 416.096, 399.114 413.500 C 400.324 407.908, 399.973 390.535, 398.509 383.628 C 396.494 374.114, 390.370 361.983, 381.706 350.343 C 374.842 341.119, 372.004 338.121, 365.959 333.704 C 361.889 330.730, 365.980 333.063, 374.908 338.807 C 379.533 341.782, 385.495 346.254, 388.158 348.745 C 392.495 352.801, 393 353.040, 393 351.031 C 393 347.249, 389.956 336.785, 387.244 331.246 C 385.829 328.357, 382.442 323.225, 379.717 319.843 C 375.072 314.079, 374.973 313.841, 378.131 316.046 C 379.984 317.340, 384.753 321.624, 388.730 325.566 L 395.959 332.734 396.613 329.248 C 397.465 324.709, 396.482 314.426, 394.702 309.260 C 393.402 305.487, 390.449 300.131, 386.288 294 L 384.591 291.500 387.546 293.948 C 389.171 295.294, 392.003 297.994, 393.840 299.948 L 397.179 303.500 396.543 299 C 395.897 294.438, 392.474 286.417, 389.362 282.174 C 387.746 279.971, 387.915 280.001, 392.578 282.735 C 399.673 286.895, 401.395 287.444, 400.503 285.261 C 400.107 284.293, 399.349 281.996, 398.819 280.157 C 398.287 278.314, 395.177 274.050, 391.891 270.657 C 386.215 264.797, 386.049 264.485, 388.439 264.186 C 391.756 263.771, 402.500 266.555, 407.396 269.097 L 411.293 271.121 410.688 266.013 C 409.799 258.510, 404.015 242.523, 399.287 234.500 C 397.017 230.650, 391.987 223.559, 388.108 218.742 L 381.054 209.983 386.222 213.463 C 396.056 220.086, 392.714 214.745, 382.500 207.516 C 379.200 205.180, 375.825 203.019, 375 202.713 C 374.175 202.408, 375.413 202.122, 377.750 202.079 C 380.087 202.036, 381.988 201.662, 381.973 201.250 C 381.958 200.838, 378.290 198.769, 373.821 196.653 C 368.466 194.118, 366.132 192.536, 366.976 192.015 C 367.680 191.580, 367.945 190.719, 367.564 190.103 C 367.164 189.456, 367.820 188.632, 369.117 188.152 C 371.256 187.361, 371.206 187.267, 368.053 186.168 C 365.271 185.199, 364.941 184.776, 365.984 183.519 C 366.992 182.305, 366.922 181.907, 365.613 181.405 C 364.726 181.064, 364 180.159, 364 179.393 C 364 178.627, 363.550 178, 363 178 C 362.450 178, 362.053 177.662, 362.118 177.250 C 362.458 175.099, 361.751 174.154, 359.351 173.552 L 356.702 172.887 360.377 170.390 C 362.398 169.016, 363.802 167.489, 363.498 166.997 C 363.193 166.504, 363.840 165.621, 364.935 165.035 C 366.030 164.449, 366.697 163.373, 366.417 162.645 C 366.138 161.916, 366.626 160.726, 367.502 159.998 C 368.769 158.947, 368.830 158.508, 367.797 157.854 C 366.738 157.181, 366.740 157.028, 367.809 157.015 C 368.529 157.007, 368.840 156.550, 368.500 156 C 368.160 155.450, 368.309 155, 368.831 155 C 369.355 155, 369.615 152.684, 369.411 149.827 C 369.196 146.816, 369.529 144.068, 370.207 143.251 C 371.022 142.269, 371.050 141.645, 370.302 141.174 C 369.543 140.696, 369.546 138.975, 370.314 135.248 C 371.151 131.183, 371.111 129.714, 370.138 128.748 C 369.130 127.747, 368.974 128.021, 369.352 130.127 C 370.070 134.131, 366.169 139.588, 359.043 144.547 C 352.645 149, 348.850 153, 351.024 153 C 351.649 153, 349.650 155.295, 346.581 158.100 C 343.511 160.906, 341 164.056, 341 165.100 C 341 166.222, 340.303 167, 339.300 167 C 337.978 167, 337.867 166.733, 338.800 165.800 C 340.657 163.943, 340.216 162.588, 338.250 164.110 C 336.583 165.401, 336.583 165.367, 338.250 163.404 C 339.212 162.270, 340 160.871, 340 160.294 C 340 159.717, 340.675 158.685, 341.500 158 C 342.325 157.315, 343 156.357, 343 155.870 C 343 155.384, 340.637 156.619, 337.750 158.614 L 332.500 162.243 337.462 157.122 C 343.694 150.690, 342.255 150.339, 335.784 156.712 C 330.888 161.535, 329.848 161.143, 332.076 155.315 C 333.063 152.734, 334.058 142.609, 333.245 143.422 C 333.051 143.616, 332.038 145.963, 330.993 148.637 C 329.299 152.973, 329.088 153.180, 329.047 150.552 C 328.963 145.296, 331.172 130.615, 332.712 126.189 C 334.605 120.749, 333.758 119.755, 330.964 124.137 C 329.077 127.098, 328.879 127.201, 329.314 125 C 329.585 123.625, 331.424 117.964, 333.401 112.420 C 335.428 106.736, 337.221 99.542, 337.512 95.920 L 338.030 89.500 336.139 98.058 C 334.403 105.912, 330.052 119.421, 329.467 118.774 C 329.330 118.623, 329.829 114.225, 330.574 109 C 331.320 103.775, 331.945 97.362, 331.965 94.750 C 332.004 89.434, 331.494 89.173, 324.922 91.141 C 321.326 92.219, 313.439 97.772, 314.293 98.626 C 314.510 98.843, 316.446 98.410, 318.594 97.663 C 329.560 93.850, 330.429 94.797, 323.616 103.135 C 321.204 106.086, 317.653 111.650, 315.724 115.500 L 312.217 122.500 311.605 116 C 311.268 112.425, 310.832 107.925, 310.635 106 C 310.438 104.075, 310.253 107.675, 310.224 114 C 310.144 131.507, 308.653 133.430, 304.990 120.754 C 302.921 113.592, 302.602 110.338, 302.565 96.004 L 302.523 79.500 306.882 67 C 309.280 60.125, 312.337 52.475, 313.677 50 C 315.016 47.525, 315.816 46.400, 315.455 47.500 C 313.836 52.430, 308.184 73.517, 308.419 73.752 C 308.562 73.896, 310.738 69.841, 313.252 64.741 C 315.767 59.641, 318.771 54.612, 319.928 53.565 L 322.030 51.663 320.577 55.781 C 319.778 58.046, 318.621 60.935, 318.007 62.200 C 317.199 63.864, 317.518 63.689, 319.159 61.570 C 322.737 56.951, 325.324 54.397, 327.684 53.152 C 331.583 51.096, 332.601 51.943, 329 54.247 L 325.500 56.486 328.750 56.807 C 332.324 57.159, 333.048 58.533, 330.145 59.454 C 328.106 60.101, 320.752 67.085, 321.413 67.747 C 321.641 67.974, 322.991 67.397, 324.413 66.465 C 328.657 63.685, 327.346 66.287, 322.436 70.391 C 316.989 74.944, 317.321 76.377, 322.958 72.646 C 327.252 69.805, 328 69.536, 328 70.832 C 328 71.289, 325.863 73.053, 323.250 74.751 C 320.637 76.449, 317.150 79.281, 315.500 81.044 C 313.095 83.614, 314.032 83.184, 320.231 78.875 C 333.489 69.657, 334.931 68.893, 336.988 69.993 C 342.014 72.683, 344.819 93.754, 341.575 104.453 C 340.749 107.178, 340.255 109.589, 340.477 109.811 C 340.700 110.033, 341.696 107.579, 342.691 104.357 C 345.477 95.337, 345.128 73.635, 342.067 65.500 C 339.198 57.877, 336.851 49.428, 337.928 50.601 C 340.605 53.517, 348.594 82.305, 351.485 99.458 C 353.582 111.899, 353.022 119.681, 349.161 131.750 C 347.534 136.838, 346.376 141, 346.588 141 C 347.248 141, 349.604 134.731, 350.905 129.513 C 352.500 123.115, 353.497 122, 357.622 122 C 361.344 122, 362.218 123.869, 358.903 124.736 C 356.987 125.237, 356.864 125.753, 357.479 130.680 C 358.036 135.140, 357.793 136.685, 356.077 139.595 C 354.934 141.530, 354 143.342, 354 143.620 C 354 144.770, 364.333 138.392, 366.092 136.156 C 367.141 134.822, 368 132.216, 368 130.365 C 368 128.514, 368.450 127, 369 127 C 370.749 127, 370.111 124.166, 365.499 111.445 C 363.024 104.616, 361.019 97.560, 361.044 95.765 C 361.207 83.945, 355.592 60.617, 348.387 43.175 C 343.956 32.450, 342.311 30.028, 338.328 28.364 C 333.841 26.489, 332.323 26.636, 326.053 29.555 M 155.005 44.290 C 155.002 44.724, 155.889 46.822, 156.976 48.952 C 160.750 56.351, 170.044 82.141, 169.944 84.938 C 169.913 85.797, 168.663 83.110, 167.166 78.967 C 162.546 66.179, 155.956 56.683, 148.843 52.564 C 145.537 50.649, 145.516 50.649, 146.950 52.564 C 147.747 53.629, 149.547 55.796, 150.950 57.380 C 153.068 59.772, 153.162 60.092, 151.500 59.270 C 148.416 57.746, 143.140 56.965, 142.535 57.944 C 142.236 58.427, 141.331 65.274, 140.522 73.161 C 139.714 81.047, 138.345 91.325, 137.480 96 C 132.658 122.058, 132.659 122.515, 137.595 128.420 C 139.701 130.939, 141.776 133, 142.208 133 C 142.639 133, 142.104 130.664, 141.020 127.810 C 139.935 124.955, 139.206 122.461, 139.399 122.267 C 139.593 122.074, 140.903 123.285, 142.311 124.958 C 143.719 126.631, 145.182 128, 145.563 128 C 145.944 128, 145.956 126.087, 145.589 123.750 C 144.934 119.572, 144.951 119.540, 146.590 121.852 C 149.126 125.431, 149.993 122.718, 148.418 116.132 C 146.293 107.247, 146.867 105.932, 149.802 112.956 C 151.881 117.930, 152.577 118.877, 152.836 117.077 C 153.214 114.460, 150.453 106.342, 148.363 103.921 C 146.292 101.522, 146.679 101, 150.532 101 C 154.872 101, 159.887 103.036, 162.344 105.795 C 165.988 109.887, 168.364 105.717, 165.972 99.426 C 165.407 97.939, 165.150 96.516, 165.403 96.264 C 165.655 96.012, 166.414 97.649, 167.089 99.903 C 168.285 103.894, 170.301 105.269, 171.264 102.750 C 171.526 102.063, 171.343 98.594, 170.856 95.043 C 170.369 91.492, 170.151 88.117, 170.371 87.543 C 170.590 86.969, 171.106 88.873, 171.517 91.772 C 171.928 94.672, 172.601 97.254, 173.014 97.508 C 173.426 97.763, 174.516 94.977, 175.436 91.316 L 177.108 84.660 172.675 75.580 C 167.915 65.831, 155.014 42.985, 155.005 44.290 M 323.500 58 C 323.160 58.550, 323.359 59, 323.941 59 C 324.523 59, 325 58.550, 325 58 C 325 57.450, 324.802 57, 324.559 57 C 324.316 57, 323.840 57.450, 323.500 58 M 143.339 70.691 C 143.698 77.736, 143.996 85.525, 144.001 88 L 144.010 92.500 146.334 89.595 C 148.383 87.035, 149.123 86.757, 152.579 87.247 C 154.736 87.553, 157.400 88.128, 158.500 88.525 C 160.025 89.075, 159.907 88.806, 158.001 87.392 C 156.504 86.281, 153.800 85.531, 151.254 85.519 C 146.552 85.498, 145.625 84.383, 149.500 83.411 C 152.659 82.618, 156.943 83.664, 159.396 85.828 C 161.202 87.421, 161.239 87.400, 160.184 85.387 C 158.724 82.602, 153.888 80.678, 149.605 81.177 C 146.480 81.542, 146.113 81.313, 145.583 78.665 C 144.711 74.305, 144.762 74.174, 148 72.500 C 150.694 71.107, 151.301 71.104, 153.950 72.474 C 158.479 74.816, 158.888 74.288, 154.732 71.464 C 150.410 68.527, 150.147 68.023, 153.250 68.620 L 155.500 69.052 153.250 67.873 C 152.012 67.225, 151 66.297, 151 65.812 C 151 65.327, 150.061 65.432, 148.914 66.046 C 147.767 66.660, 146.604 66.937, 146.329 66.662 C 145.426 65.760, 149.818 63.993, 151.428 64.611 C 152.292 64.942, 153 64.794, 153 64.281 C 153 62.666, 148.621 59.291, 145.593 58.573 L 142.685 57.883 143.339 70.691 M 146.813 61.683 C 147.534 61.972, 148.397 61.936, 148.729 61.604 C 149.061 61.272, 148.471 61.036, 147.417 61.079 C 146.252 61.127, 146.015 61.364, 146.813 61.683 M 330.128 62.916 C 329.374 63.385, 328.924 64.256, 329.128 64.852 C 329.352 65.506, 330.044 65.598, 330.872 65.084 C 331.626 64.615, 332.076 63.744, 331.872 63.148 C 331.648 62.494, 330.956 62.402, 330.128 62.916 M 336 65 C 336 65.550, 336.450 66, 337 66 C 337.550 66, 338 65.550, 338 65 C 338 64.450, 337.550 64, 337 64 C 336.450 64, 336 64.450, 336 65 M 331.250 67.031 C 327.771 68.429, 328.454 70.086, 332 68.850 C 333.650 68.275, 335 67.398, 335 66.902 C 335 65.813, 334.213 65.840, 331.250 67.031 M 299.133 75.664 C 295.815 82.493, 295.540 88.157, 298.072 97.500 C 299.265 101.900, 300.311 107.162, 300.396 109.192 C 300.482 111.223, 300.765 113.098, 301.026 113.359 C 301.287 113.620, 301.500 104.197, 301.500 92.418 C 301.500 80.640, 301.477 71.002, 301.449 71.001 C 301.421 71.001, 300.379 73.099, 299.133 75.664 M 280 87.621 C 280 88.146, 278.615 90.134, 276.923 92.038 C 274.947 94.262, 274.068 94.805, 274.466 93.556 C 275.056 91.707, 274.994 91.696, 273.188 93.330 C 272.113 94.303, 270.576 94.774, 269.645 94.417 C 268.572 94.005, 268 94.304, 268 95.276 C 268 97.556, 271.968 98.117, 274.514 96.197 C 277.228 94.150, 281.365 88.032, 280.572 87.238 C 280.257 86.924, 280 87.096, 280 87.621 M 233.232 93.529 C 229.804 96.630, 227.036 99.693, 227.079 100.334 C 227.133 101.133, 227.316 101.107, 227.662 100.250 C 227.940 99.563, 228.692 98.988, 229.333 98.972 C 229.975 98.957, 231.625 97.426, 233 95.570 C 235.404 92.326, 237.711 91.704, 236.600 94.601 C 235.613 97.173, 236.929 96.038, 238.535 92.932 C 241.321 87.546, 239.633 87.735, 233.232 93.529 M 221.732 101.816 C 220.759 104.190, 220.244 106.586, 220.587 107.140 C 221.537 108.678, 224.134 102.938, 223.797 100.046 C 223.532 97.777, 223.307 97.970, 221.732 101.816 M 143 114.642 C 143 115.179, 143.700 116.491, 144.555 117.559 C 146.022 119.389, 146.042 119.357, 144.920 117 C 143.462 113.939, 143 113.372, 143 114.642 M 299.529 119.250 C 300.528 123.969, 304.091 132, 305.184 132 C 306.369 132, 305.217 123.635, 303.428 119.250 C 302.695 117.454, 301.372 116, 300.472 116 C 299.158 116, 298.975 116.631, 299.529 119.250 M 315.152 123.086 C 313.002 127.669, 303.625 136.958, 299.893 138.202 C 299.009 138.497, 299.288 139.288, 300.813 140.813 C 302.016 142.016, 303 143.675, 303 144.500 C 303 145.325, 303.702 146, 304.559 146 C 305.416 146, 305.840 146.450, 305.500 147 C 305.160 147.550, 305.350 148, 305.922 148 C 306.494 148, 307.253 149.158, 307.608 150.573 C 308.099 152.532, 308.522 152.860, 309.377 151.948 C 310.182 151.089, 310.190 150.635, 309.406 150.344 C 307.578 149.665, 309.770 139.264, 313.481 131.013 C 316.641 123.987, 318.679 117.947, 317.858 118.041 C 317.661 118.064, 316.443 120.334, 315.152 123.086 M 336.874 122.750 C 334.205 129.565, 333.004 133.373, 333.049 134.876 C 333.076 135.769, 334.222 133.576, 335.596 130.003 C 336.970 126.429, 338.523 123.077, 339.047 122.553 C 340.299 121.301, 340.262 120, 338.975 120 C 338.412 120, 337.466 121.237, 336.874 122.750 M 343.855 124.081 C 339.725 131.285, 334.813 140.646, 336.208 138.655 C 341.835 130.621, 347.083 121.750, 346.768 120.805 C 346.559 120.177, 345.248 121.651, 343.855 124.081 M 285 121.289 C 285 121.575, 289.016 124.499, 293.924 127.787 C 298.832 131.076, 302.621 133.175, 302.343 132.452 C 302.066 131.729, 299.288 129.617, 296.169 127.758 C 293.051 125.899, 289.262 123.567, 287.750 122.574 C 286.238 121.582, 285 121.004, 285 121.289 M 367 123.059 C 367 123.641, 367.450 123.840, 368 123.500 C 368.550 123.160, 369 122.684, 369 122.441 C 369 122.198, 368.550 122, 368 122 C 367.450 122, 367 122.477, 367 123.059 M 208.269 136.997 C 207.024 140.167, 206.419 140.763, 205.349 139.875 C 204.318 139.019, 204 139.111, 204 140.263 C 204 141.092, 202.875 142.507, 201.500 143.408 C 200.125 144.309, 199 145.737, 199 146.582 C 199 147.427, 198.631 147.890, 198.180 147.611 C 197.729 147.332, 195.874 149.556, 194.058 152.552 C 192.242 155.548, 190.396 158, 189.955 158 C 188.158 158, 187.041 165.248, 186.862 178.081 C 186.649 193.396, 187.251 195.761, 190.150 190.994 C 191.706 188.435, 192.353 188.048, 193.496 188.997 C 195.368 190.550, 196.901 189.481, 198.585 185.450 C 199.477 183.316, 200.771 182.029, 202.233 181.822 C 204.360 181.520, 204.481 181.099, 204.198 175 L 203.896 168.500 206.064 171.965 C 208.462 175.798, 208.351 175.845, 213.229 168.946 C 214.591 167.019, 214.819 166.925, 214.304 168.500 C 213.944 169.600, 212.967 171.625, 212.133 173 C 210.739 175.296, 210.882 175.256, 213.882 172.500 C 215.679 170.850, 218.065 167.377, 219.184 164.781 C 220.303 162.186, 221.845 159.544, 222.610 158.909 C 224.860 157.041, 224.358 154.752, 221.871 155.541 C 219.975 156.143, 219.788 155.896, 220.172 153.284 C 220.601 150.356, 218.878 147.505, 217.467 148.810 C 217.057 149.190, 216.985 147.475, 217.308 145 C 217.630 142.525, 217.655 141.063, 217.364 141.750 C 216.363 144.109, 215 142.999, 215 139.826 L 215 136.651 212.362 139.076 L 209.724 141.500 210.267 137.250 C 210.946 131.929, 210.292 131.846, 208.269 136.997 M 162.500 147 C 162.125 148.183, 162.042 149.376, 162.317 149.651 C 162.592 149.926, 163.125 149.183, 163.500 148 C 163.875 146.817, 163.958 145.624, 163.683 145.349 C 163.408 145.074, 162.875 145.817, 162.500 147 M 203.015 157.750 C 203.024 158.162, 203.467 159.175, 204 160 C 204.784 161.213, 204.972 161.069, 204.985 159.250 C 204.993 158.012, 204.550 157, 204 157 C 203.450 157, 203.007 157.338, 203.015 157.750 M 224.733 168.769 C 220.730 169.145, 219.316 170.592, 216.609 177.081 L 215.114 180.662 219.807 179.463 C 224.928 178.155, 230.626 178.364, 238.740 180.157 C 243.810 181.277, 244.059 181.228, 246.442 178.657 C 247.796 177.196, 248.531 176, 248.074 176 C 247.618 176, 245.502 175.251, 243.372 174.336 C 239.598 172.715, 239.563 172.654, 242 171.936 C 244.076 171.324, 243.794 171.182, 240.333 171.100 C 238.042 171.045, 236.017 170.561, 235.833 170.023 C 235.442 168.876, 230.069 168.269, 224.733 168.769 M 349.500 179 C 347.919 180.650, 346.980 182, 347.412 182 C 349.440 182, 355 178.619, 355 177.386 C 355 175.095, 352.553 175.814, 349.500 179 M 144.128 183.345 C 142.357 185.480, 141.637 190.657, 142.995 191.497 C 144.784 192.603, 148.972 189.960, 149.639 187.304 C 150.655 183.255, 146.613 180.352, 144.128 183.345 M 225.667 183.667 C 224.398 184.935, 225.007 187.905, 226.750 188.950 C 228.413 189.947, 228.412 190.067, 226.721 191.381 C 225.081 192.655, 225.073 192.814, 226.612 193.404 C 230.667 194.961, 234.267 189.466, 232.393 184.582 C 231.790 183.010, 226.978 182.356, 225.667 183.667 M 133.741 185.250 C 132.961 187.309, 135.494 195.638, 138.023 199.328 L 140.385 202.775 143.270 200.642 L 146.156 198.509 143.828 197.976 C 141.015 197.331, 138.004 191.788, 138.002 187.250 C 138 184.728, 137.576 184, 136.107 184 C 135.066 184, 134.001 184.563, 133.741 185.250 M 215.032 186.415 C 213.722 189.863, 215.537 195.490, 218.784 198.048 C 221.135 199.899, 222.533 200.139, 229.182 199.839 C 239.729 199.362, 244.222 195.893, 245.163 187.500 C 245.479 184.684, 245.270 184.481, 241.750 184.190 L 238 183.879 238 188.251 C 238 195.035, 232.868 199.188, 226.469 197.582 C 223.298 196.786, 220.009 191.529, 220.004 187.250 C 220.001 184.655, 219.592 184, 217.975 184 C 216.755 184, 215.586 184.959, 215.032 186.415 M 346.500 185 C 346.840 185.550, 346.564 186, 345.888 186 C 345.211 186, 343.816 186.762, 342.787 187.693 C 340.967 189.340, 340.977 189.417, 343.141 190.575 C 345.315 191.739, 345.279 191.809, 341.532 193.731 C 339.425 194.812, 338.131 195.963, 338.658 196.289 C 340.657 197.524, 349.540 198.051, 351 197.021 C 352.271 196.124, 352.075 195.644, 349.717 193.874 C 347.489 192.201, 347.168 191.502, 348.109 190.368 C 348.756 189.589, 349.012 188.678, 348.678 188.344 C 348.344 188.010, 348.520 186.896, 349.070 185.869 C 349.899 184.320, 349.711 184, 347.976 184 C 346.824 184, 346.160 184.450, 346.500 185 M 170.507 210.989 C 170.157 211.555, 170.558 211.723, 171.448 211.382 C 173.180 210.717, 173.497 210, 172.059 210 C 171.541 210, 170.843 210.445, 170.507 210.989 M 314 211 C 312.667 211.862, 312.667 211.969, 314 211.969 C 314.825 211.969, 316.175 211.533, 317 211 C 318.333 210.138, 318.333 210.031, 317 210.031 C 316.175 210.031, 314.825 210.467, 314 211 M 101 247.183 L 97.500 249.359 100.759 250.327 C 103.409 251.114, 104.389 250.958, 106.009 249.492 C 110.712 245.236, 106.934 243.494, 101 247.183 M 114.335 246.695 C 111.766 247.195, 110.629 249.480, 112.309 250.763 C 113.051 251.330, 115.539 251.039, 118.912 249.991 L 124.324 248.309 121.013 247.154 C 119.192 246.519, 117.431 246.061, 117.101 246.136 C 116.770 246.211, 115.526 246.462, 114.335 246.695 M 364.441 247.555 C 362.577 249.049, 362.589 249.067, 364.750 248.020 C 365.988 247.420, 367 246.720, 367 246.465 C 367 245.700, 366.481 245.921, 364.441 247.555 M 343.500 250.065 C 336.773 250.582, 331.209 251.682, 326.500 253.426 L 319.500 256.019 327.500 255.470 C 338.345 254.726, 347.114 253.154, 352.779 250.939 C 355.376 249.924, 356.600 249.139, 355.500 249.195 C 354.400 249.251, 349 249.642, 343.500 250.065 M 368.534 254.647 C 356.657 259.792, 357.204 260.446, 369.560 255.872 C 374.417 254.074, 379.578 250.992, 377.500 251.130 C 376.950 251.167, 372.915 252.750, 368.534 254.647 M 328.279 260.412 C 324.308 261.070, 320.708 261.977, 320.279 262.428 C 319.851 262.879, 320.412 262.969, 321.528 262.627 C 322.643 262.286, 328.637 261.598, 334.849 261.099 C 341.060 260.599, 346.411 259.923, 346.738 259.595 C 347.721 258.613, 336.012 259.131, 328.279 260.412 M 96 264 C 96 265.100, 96.450 266, 97 266 C 97.550 266, 98 265.100, 98 264 C 98 262.900, 97.550 262, 97 262 C 96.450 262, 96 262.900, 96 264 M 122 263.886 C 122 267.485, 132.171 270.474, 136 268 C 137.121 267.275, 136.589 267.027, 133.890 267.015 C 131.708 267.006, 128.821 266.011, 126.595 264.500 C 122.178 261.503, 122 261.479, 122 263.886 M 235.750 263.662 C 236.438 263.940, 237.563 263.940, 238.250 263.662 C 238.938 263.385, 238.375 263.158, 237 263.158 C 235.625 263.158, 235.063 263.385, 235.750 263.662 M 240.813 264.683 C 241.534 264.972, 242.397 264.936, 242.729 264.604 C 243.061 264.272, 242.471 264.036, 241.417 264.079 C 240.252 264.127, 240.015 264.364, 240.813 264.683 M 101.118 266.630 C 99.250 267.939, 98.919 268.845, 99.412 271.311 C 100.162 275.060, 102.686 278, 105.155 278 C 106.170 278, 106.984 277.887, 106.965 277.750 C 106.946 277.613, 106.143 274.689, 105.182 271.254 C 103.437 265.015, 103.432 265.009, 101.118 266.630 M 303.813 265.683 C 304.534 265.972, 305.397 265.936, 305.729 265.604 C 306.061 265.272, 305.471 265.036, 304.417 265.079 C 303.252 265.127, 303.015 265.364, 303.813 265.683 M 250.565 268.295 C 255.327 270.878, 258.006 272.867, 259.779 275.138 C 260.895 276.566, 260.384 277.159, 255.779 279.775 C 252.876 281.425, 249.409 283.950, 248.076 285.387 L 245.651 288 248.076 288.022 C 249.409 288.034, 252.462 288.934, 254.859 290.022 C 257.257 291.110, 259.507 291.961, 259.859 291.914 C 260.212 291.867, 257.815 290.573, 254.534 289.038 L 248.567 286.247 254.593 283.205 C 263.060 278.931, 263.678 277.959, 260.399 274.063 C 258.936 272.324, 255.563 269.799, 252.903 268.451 C 246.902 265.410, 245.014 265.284, 250.565 268.295 M 293.639 269.225 C 293.903 269.651, 296.191 270, 298.726 270 C 301.260 270, 303.022 269.689, 302.641 269.308 C 301.681 268.348, 293.048 268.269, 293.639 269.225 M 207.269 270.693 C 208.242 270.947, 209.592 270.930, 210.269 270.656 C 210.946 270.382, 210.150 270.175, 208.500 270.195 C 206.850 270.215, 206.296 270.439, 207.269 270.693 M 222.750 270.662 C 223.438 270.940, 224.563 270.940, 225.250 270.662 C 225.938 270.385, 225.375 270.158, 224 270.158 C 222.625 270.158, 222.063 270.385, 222.750 270.662 M 192 273.428 C 187.325 274.663, 180.221 276.715, 176.212 277.988 L 168.925 280.302 165.797 277.401 L 162.668 274.500 165.345 278.109 L 168.022 281.718 177.761 278.795 C 183.118 277.187, 191.325 274.808, 196 273.509 C 200.675 272.210, 203.600 271.154, 202.500 271.164 C 201.400 271.173, 196.675 272.192, 192 273.428 M 283.500 275.053 C 289 275.469, 295.431 276.514, 297.790 277.374 C 300.150 278.235, 301.818 278.515, 301.497 277.996 C 300.230 275.945, 290.428 274.004, 282.068 274.148 L 273.500 274.297 283.500 275.053 M 265.813 277.683 C 266.534 277.972, 267.397 277.936, 267.729 277.604 C 268.061 277.272, 267.471 277.036, 266.417 277.079 C 265.252 277.127, 265.015 277.364, 265.813 277.683 M 270.083 278.408 C 270.940 279.246, 282 283.870, 282 283.390 C 282 283.115, 279.512 281.790, 276.471 280.445 C 271.289 278.153, 269.114 277.459, 270.083 278.408 M 97.447 284.780 C 95.341 290.968, 94.859 302.298, 96.575 305.265 C 97.322 306.555, 97.486 305.284, 97.184 300.544 C 96.922 296.437, 97.407 291.461, 98.505 286.981 C 99.458 283.089, 100.049 279.715, 99.816 279.483 C 99.584 279.250, 98.518 281.634, 97.447 284.780 M 154.393 281.582 C 154.727 282.452, 155 283.352, 155 283.582 C 155 283.812, 156.125 284, 157.500 284 C 160.723 284, 160.700 282.640, 157.453 281.161 C 154.102 279.634, 153.668 279.693, 154.393 281.582 M 193.269 280.693 C 194.242 280.947, 195.592 280.930, 196.269 280.656 C 196.946 280.382, 196.150 280.175, 194.500 280.195 C 192.850 280.215, 192.296 280.439, 193.269 280.693 M 187.750 281.662 C 188.438 281.940, 189.563 281.940, 190.250 281.662 C 190.938 281.385, 190.375 281.158, 189 281.158 C 187.625 281.158, 187.063 281.385, 187.750 281.662 M 181.306 284.468 C 179.001 286.496, 178.823 286.942, 180.309 286.968 C 181.304 286.986, 181.853 286.571, 181.529 286.047 C 181.206 285.524, 182.192 284.417, 183.720 283.588 C 185.249 282.758, 185.963 282.062, 185.306 282.040 C 184.649 282.018, 182.849 283.111, 181.306 284.468 M 151.396 287.056 C 155.189 288.698, 158.466 289.867, 158.678 289.656 C 159.383 288.950, 154.421 286.210, 150.435 285.104 C 143.838 283.272, 144.159 283.924, 151.396 287.056 M 168 284.797 C 168 285.805, 175.322 293, 176.348 293 C 176.768 293, 175.849 291.844, 174.306 290.432 C 172.316 288.611, 171.884 287.707, 172.821 287.325 C 173.699 286.967, 173.242 286.319, 171.457 285.393 C 168.343 283.778, 168 283.719, 168 284.797 M 184.813 287.683 C 185.534 287.972, 186.397 287.936, 186.729 287.604 C 187.061 287.272, 186.471 287.036, 185.417 287.079 C 184.252 287.127, 184.015 287.364, 184.813 287.683 M 143.568 288.890 C 143.268 289.376, 143.636 290.283, 144.386 290.906 C 145.137 291.528, 146.315 294.054, 147.005 296.519 C 147.695 298.984, 148.651 301, 149.130 301 C 150.510 301, 150.141 297.569, 148.532 295.441 C 146.632 292.930, 146.621 291.917, 148.500 292.638 C 149.325 292.955, 150 292.727, 150 292.133 C 150 290.673, 144.256 287.777, 143.568 288.890 M 231.750 289.662 C 232.438 289.940, 233.563 289.940, 234.250 289.662 C 234.938 289.385, 234.375 289.158, 233 289.158 C 231.625 289.158, 231.063 289.385, 231.750 289.662 M 160.083 290.326 C 161.783 291.657, 168 295.063, 168 294.663 C 168 294.016, 161.511 290, 160.465 290 C 160.026 290, 159.854 290.147, 160.083 290.326 M 153.737 295.199 C 155.496 296.958, 157.252 298.081, 157.639 297.695 C 158.609 296.724, 154.010 292, 152.095 292 C 151.029 292, 151.546 293.007, 153.737 295.199 M 274.905 298.500 C 275.931 300.700, 277.091 304.443, 277.484 306.817 C 277.877 309.192, 278.418 310.915, 278.687 310.647 C 279.678 309.655, 276.808 298.987, 274.956 296.781 C 273.066 294.529, 273.065 294.552, 274.905 298.500 M 122.500 300 C 122.160 300.550, 122.584 301, 123.441 301 C 124.298 301, 125 300.550, 125 300 C 125 299.450, 124.577 299, 124.059 299 C 123.541 299, 122.840 299.450, 122.500 300 M 242.959 304.706 C 252.417 311.606, 254.945 316.254, 255.120 327.066 C 255.235 334.151, 255.286 334.309, 256.226 330.420 C 258.476 321.111, 252.910 309.536, 243.861 304.706 C 240.629 302.982, 240.594 302.982, 242.959 304.706 M 230.500 309.635 C 231.050 310.119, 233.073 311.862, 234.996 313.508 L 238.493 316.500 235.996 313.658 C 234.623 312.095, 232.600 310.353, 231.500 309.786 C 230.400 309.219, 229.950 309.151, 230.500 309.635 M 140.031 311.500 C 140.031 312.050, 140.467 313.175, 141 314 C 141.533 314.825, 141.969 315.050, 141.969 314.500 C 141.969 313.950, 141.533 312.825, 141 312 C 140.467 311.175, 140.031 310.950, 140.031 311.500 M 188 319 C 189.956 320.264, 192.719 320.264, 193.500 319 C 193.871 318.399, 192.597 318.006, 190.309 318.015 C 187.481 318.027, 186.887 318.280, 188 319 M 209.772 322.268 C 215.040 328.474, 215.183 332.668, 210.476 343 C 208.398 347.562, 208.310 348.074, 209.957 346 C 212.413 342.908, 215 335.608, 215 331.772 C 215 328.108, 212.949 324.176, 209.382 321 C 206.839 318.736, 206.876 318.856, 209.772 322.268 M 169.990 324.446 C 165.316 326.990, 156.546 328.710, 150.712 328.226 C 146.870 327.907, 145 328.120, 145 328.876 C 145 329.494, 145.858 330, 146.906 330 C 148.684 330, 148.777 330.649, 148.299 339.750 C 147.932 346.744, 148.239 351.418, 149.387 356.283 C 151.438 364.982, 157.390 377.016, 161.712 381.206 L 165.085 384.474 160.130 373.971 C 157.406 368.195, 154.403 360.551, 153.457 356.984 C 151.568 349.855, 151.056 333.544, 152.671 331.929 C 153.224 331.376, 156.786 330.774, 160.588 330.590 C 169.411 330.164, 169 330.270, 169 328.421 C 169 327.197, 169.655 326.985, 171.905 327.479 C 175.059 328.172, 176.358 327.097, 175.396 324.590 C 174.660 322.671, 173.318 322.635, 169.990 324.446 M 178 323.759 C 178 324.177, 178.917 325.091, 180.037 325.791 C 183.679 328.066, 184.203 331.462, 181.944 338.166 C 179.423 345.650, 179.976 346.809, 182.864 340.095 C 185.374 334.261, 185.496 332.124, 183.585 327.549 C 182.807 325.687, 182.432 323.901, 182.752 323.582 C 183.072 323.262, 182.133 323, 180.667 323 C 179.200 323, 178 323.342, 178 323.759 M 199.500 330.800 C 199.500 335.035, 199.146 339.625, 198.713 341 C 198.054 343.096, 198.204 343.015, 199.638 340.500 C 201.469 337.291, 201.990 325.590, 200.375 323.975 C 199.875 323.475, 199.500 326.402, 199.500 330.800 M 347.045 324 C 347.021 324.275, 347.972 326.975, 349.159 330 C 351.412 335.739, 352.297 350.125, 350.791 356.500 L 350.082 359.500 351.474 356.500 C 353.895 351.282, 354.332 343.846, 352.614 337.138 C 351.298 332.002, 347.192 322.315, 347.045 324 M 273.400 329.162 C 272.565 330.512, 276.456 334, 278.798 334 C 279.945 334, 279.591 333.182, 277.500 331 C 274.207 327.563, 274.349 327.627, 273.400 329.162 M 338.513 330.500 C 338.873 332.150, 339.335 334.047, 339.539 334.716 C 340.244 337.020, 336.910 353.117, 334.668 358.232 L 332.422 363.356 330.734 359.928 C 329.458 357.338, 329.040 357.003, 329.023 358.559 C 329.010 359.691, 328.339 361.491, 327.532 362.559 C 326.110 364.439, 326.063 364.424, 326.032 362.083 C 325.970 357.377, 324.723 361.023, 324.533 366.467 C 324.427 369.506, 324.058 372.275, 323.713 372.620 C 322.402 373.931, 319.834 371.865, 316.892 367.133 C 315.214 364.433, 311.739 360.784, 309.170 359.023 L 304.500 355.821 309.770 360.661 C 315.137 365.589, 317.216 369.666, 312.777 366.557 C 309.101 363.981, 309.002 364.723, 312.197 370.918 C 313.876 374.174, 315.795 379.236, 316.462 382.168 L 317.675 387.500 319.799 383.500 C 323.611 376.321, 324.140 376.017, 323.801 381.204 C 323.397 387.377, 324.617 385.947, 327.498 376.871 C 328.925 372.375, 329.869 370.508, 329.919 372.083 C 329.963 373.504, 330.278 374.945, 330.619 375.285 C 331.526 376.193, 338.904 360.465, 340.570 354.072 C 342.288 347.473, 342.426 337.572, 340.864 332.899 C 339.331 328.317, 337.666 326.617, 338.513 330.500 M 361.100 336.691 C 361.172 341.622, 361.420 342.810, 362 341 C 363.162 337.370, 363.162 331.218, 362 330.500 C 361.367 330.109, 361.037 332.383, 361.100 336.691 M 179.996 335.009 C 179.296 336.699, 177.436 339.859, 175.862 342.032 C 174.288 344.205, 173 346.299, 173 346.686 C 173 347.825, 177.986 340.827, 180.147 336.653 C 181.243 334.537, 181.944 332.610, 181.704 332.371 C 181.465 332.132, 180.696 333.319, 179.996 335.009 M 261 338 C 261 339.650, 261.450 341, 262 341 C 262.550 341, 263 339.650, 263 338 C 263 336.350, 262.550 335, 262 335 C 261.450 335, 261 336.350, 261 338 M 254.079 336.668 C 254.036 337.311, 253.741 338.661, 253.424 339.668 C 252.877 341.409, 252.906 341.412, 253.995 339.712 C 254.626 338.729, 254.920 337.379, 254.650 336.712 C 254.295 335.837, 254.136 335.825, 254.079 336.668 M 270.079 340.583 C 270.127 341.748, 270.364 341.985, 270.683 341.188 C 270.972 340.466, 270.936 339.603, 270.604 339.271 C 270.272 338.939, 270.036 339.529, 270.079 340.583 M 174.295 357.296 C 171.136 360.723, 169.972 362.939, 169.387 366.644 C 168.161 374.401, 168.704 382.049, 170.931 388.407 C 172.069 391.655, 173 395.818, 173 397.657 C 173 401.321, 173.221 401.487, 176.066 399.965 C 178.692 398.559, 178.590 399.490, 175 409.660 C 173.350 414.335, 172.014 419.586, 172.032 421.330 C 172.063 424.395, 172.116 424.434, 173.635 422.500 C 175.181 420.533, 175.196 420.537, 174.536 422.750 C 174.167 423.988, 174.161 425.933, 174.523 427.074 C 175.084 428.840, 175.724 428.230, 178.835 422.972 L 182.488 416.796 183.683 423.933 C 185.536 434.996, 187.775 441.780, 192.567 450.842 C 197.209 459.621, 210.143 477.071, 210.721 475.336 C 211.054 474.339, 209.271 471.100, 199.733 455.364 C 193.753 445.500, 191.618 439.819, 189.020 426.860 C 187.886 421.205, 185.579 412.285, 183.893 407.039 C 180.733 397.208, 179.971 389.057, 181.366 380 L 182.059 375.500 180.071 379 C 178.978 380.925, 178.065 383.314, 178.042 384.309 C 178.019 385.304, 177.550 385.840, 177 385.500 C 175.777 384.744, 175.723 372.900, 176.919 367.750 C 177.398 365.688, 177.623 364, 177.419 364 C 177.215 364, 176.118 365.688, 174.982 367.750 L 172.916 371.500 173.533 367.500 C 173.872 365.300, 175.271 361.567, 176.643 359.205 C 180.238 353.014, 179.097 352.087, 174.295 357.296 M 233 353.830 C 233 354.470, 229.738 358.459, 225.750 362.694 C 221.762 366.930, 219.850 369.447, 221.500 368.289 C 226.759 364.597, 234.872 354.538, 233.609 353.276 C 233.274 352.941, 233 353.190, 233 353.830 M 332.158 358 C 332.158 359.375, 332.385 359.938, 332.662 359.250 C 332.940 358.563, 332.940 357.438, 332.662 356.750 C 332.385 356.063, 332.158 356.625, 332.158 358 M 191.810 380 C 190.881 383.025, 189.818 387.477, 189.448 389.893 C 188.585 395.534, 189.917 419, 191.101 419 C 191.595 419, 192 413.897, 192 407.659 C 192 401.421, 192.486 392.708, 193.080 388.296 C 193.673 383.884, 194.011 378.975, 193.830 377.387 C 193.542 374.870, 193.283 375.205, 191.810 380 M 187.684 382.382 C 187.308 383.362, 187.029 384.914, 187.063 385.832 C 187.105 386.937, 187.453 386.685, 188.092 385.086 C 188.623 383.758, 188.902 382.206, 188.712 381.636 C 188.522 381.067, 188.059 381.403, 187.684 382.382 M 186.286 392.500 C 186.294 395.250, 186.488 396.256, 186.718 394.736 C 186.947 393.216, 186.941 390.966, 186.704 389.736 C 186.467 388.506, 186.279 389.750, 186.286 392.500 M 269.538 392.750 C 269.957 394.813, 270.856 399.425, 271.537 403 C 272.665 408.918, 272.793 409.142, 272.967 405.500 L 273.158 401.500 275.566 406.500 C 276.891 409.250, 277.980 410.783, 277.987 409.907 C 278.016 406.277, 270.894 389, 269.368 389 C 269.043 389, 269.120 390.688, 269.538 392.750 M 242.716 409.250 C 237.771 417.746, 231.860 430.570, 234.074 428 C 237.069 424.524, 246.827 405, 245.570 405 C 245.361 405, 244.077 406.913, 242.716 409.250 M 291.718 414.165 C 292.323 421.493, 292.830 422.488, 292.906 416.500 C 292.941 413.750, 292.589 410.899, 292.123 410.165 C 291.628 409.384, 291.460 411.044, 291.718 414.165 M 278.336 431 C 278.336 435.125, 278.513 436.813, 278.728 434.750 C 278.944 432.688, 278.944 429.313, 278.728 427.250 C 278.513 425.188, 278.336 426.875, 278.336 431 M 216.500 444.707 C 215.208 447.808, 214.612 467, 215.808 467 C 216.491 467, 216.992 462.739, 217.189 455.250 C 217.360 448.788, 217.443 443.368, 217.374 443.207 C 217.304 443.046, 216.911 443.721, 216.500 444.707 M 209.589 454.982 C 209.850 461.304, 210.551 466.921, 211.149 467.482 C 211.925 468.211, 212.025 467.079, 211.497 463.500 C 211.093 460.750, 210.391 455.125, 209.938 451 C 209.243 444.674, 209.189 445.297, 209.589 454.982" stroke="none" fill="black" fill-rule="evenodd"/>
</svg>