<svg xmlns="http://www.w3.org/2000/svg" width="512" height="512" viewBox="0 0 512 512" version="1.1">
	<path d="M 268.021 48.068 C 251.498 52.393, 240.141 59.611, 223.759 76.195 C 213.415 86.667, 211.782 87.954, 210.027 87.014 C 208.562 86.230, 206.270 86.357, 201.370 87.494 C 197.705 88.344, 194.502 88.836, 194.253 88.587 C 194.004 88.338, 194.367 86.416, 195.059 84.317 C 197.572 76.696, 204.635 66.520, 214.182 56.764 C 223.028 47.725, 223.589 46.929, 220.682 47.543 C 206.151 50.612, 187.457 69.777, 178.029 91.270 C 176.155 95.544, 174.144 98.874, 173.560 98.670 C 171.861 98.077, 172.597 84.377, 174.831 75.012 C 175.945 70.343, 176.619 66.293, 176.329 66.012 C 175.262 64.979, 167.922 74.432, 164.539 81.195 C 162.623 85.025, 158.971 94.760, 156.425 102.829 C 153.878 110.898, 151.354 118.040, 150.816 118.700 C 150.278 119.361, 147.485 121.228, 144.610 122.851 C 137.064 127.109, 129.758 135.543, 126.653 143.577 C 124.829 148.296, 122.918 151.235, 120.107 153.641 C 115.641 157.463, 110 167.827, 110 172.209 C 110 177.931, 114.550 183, 119.686 183 C 121.004 183, 121.179 183.842, 120.700 187.887 C 119.745 195.947, 117.680 199.479, 110.876 204.693 C 96.131 215.992, 83.772 227.300, 82.272 230.865 C 78.922 238.827, 81.498 254.811, 87.693 264.500 C 90.418 268.762, 94.982 274, 95.971 274 C 96.300 274, 97.387 272.615, 98.386 270.923 C 100.182 267.883, 100.221 267.871, 101.659 269.923 C 103.275 272.231, 105.860 272.678, 106.435 270.750 C 107.965 265.618, 107.832 265.621, 112.362 270.624 L 116.715 275.433 117.430 269.717 C 117.823 266.572, 118.424 264, 118.767 264 C 119.110 264, 120.625 265.182, 122.133 266.627 L 124.875 269.254 126.891 265.939 L 128.907 262.624 129.979 265.444 C 131.518 269.492, 133.152 277.182, 132.592 277.742 C 132.330 278.004, 130.782 277.269, 129.153 276.109 C 123.704 272.229, 122.393 273.121, 121.181 281.531 L 120.500 286.262 116.155 282.631 C 113.766 280.634, 111.439 279, 110.985 279 C 110.531 279, 109.868 280.327, 109.511 281.948 C 109.034 284.121, 109.456 285.765, 111.117 288.198 C 117.714 297.867, 117.770 298.018, 114.016 296.008 C 112.996 295.463, 111.864 293.656, 111.499 291.993 C 110.896 289.251, 104.569 282.030, 102.750 282.009 C 101.470 281.994, 101.916 284.639, 104.025 289.559 C 105.139 292.157, 105.858 294.476, 105.622 294.711 C 105.387 294.947, 103.307 294.177, 101 293 C 98.693 291.823, 96.572 291.095, 96.285 291.381 C 95.999 291.668, 97.955 295.178, 100.632 299.182 C 106.389 307.791, 112.711 313, 117.403 313 C 121.217 313, 124.109 315.674, 126.615 321.514 C 129.110 327.330, 128.863 339.942, 126.119 346.787 C 123.621 353.019, 123.526 354, 125.415 354 C 127.691 354, 135.035 345.016, 138.158 338.412 C 141.341 331.681, 143.956 320.818, 143.983 314.215 C 143.999 310.148, 144.109 309.988, 146.139 311.075 C 150.190 313.242, 153.806 313.866, 155.342 312.660 C 156.156 312.022, 158.264 307.987, 160.028 303.694 C 165.864 289.481, 177.960 276.611, 191.979 269.696 C 197.887 266.782, 199.451 266.468, 209.729 266.142 C 221.840 265.757, 222.138 265.898, 219.602 270.802 C 217.100 275.642, 214.446 277.334, 210.392 276.676 C 206.116 275.982, 203.002 277.367, 195 283.522 C 175.365 298.624, 162.937 321.707, 159.932 348.657 C 157.893 366.945, 162.348 387.573, 171.885 404.005 C 184.904 426.435, 204.253 443.998, 226.021 453.144 C 253.507 464.693, 293.155 466.028, 322.752 456.402 C 333.796 452.811, 355.285 441.950, 363.500 435.809 C 367.350 432.931, 374.550 426.497, 379.500 421.513 C 399.096 401.780, 412.463 377.718, 420.266 348.126 C 423.117 337.312, 423.337 335.243, 423.416 318.500 C 423.486 303.485, 423.187 299.505, 421.614 294.500 L 419.727 288.500 418.369 294.330 C 416.403 302.766, 415.070 304.628, 415.026 299 C 414.969 291.672, 411.273 268.947, 409.146 262.849 C 408.063 259.741, 406.440 256.075, 405.540 254.702 C 404.065 252.451, 397.203 247, 395.843 247 C 395.541 247, 395.472 249.363, 395.691 252.250 C 396.086 257.471, 396.079 257.485, 394.504 254.734 C 393.552 253.073, 392.525 247.482, 391.934 240.746 C 390.544 224.908, 387.998 220.930, 377.750 218.590 C 375.021 217.967, 375 218.003, 374.967 223.231 C 374.934 228.456, 374.918 228.482, 373.116 226.324 C 371.736 224.671, 371.169 221.780, 370.756 214.297 C 370.188 203.984, 368.455 198.178, 364.778 194.264 C 363.087 192.464, 361.564 192, 357.345 192 L 352.038 192 352.655 196.500 C 353.404 201.962, 351.875 202.484, 348.989 197.750 C 347.515 195.332, 347.006 192.708, 347 187.500 C 346.988 175.982, 343.105 171.670, 333.699 172.730 L 329 173.260 328.968 177.380 L 328.937 181.500 326.468 178.694 C 324.530 176.491, 323.995 174.773, 323.978 170.694 C 323.962 167.084, 323.359 164.738, 322 163 C 320.924 161.625, 320.034 160.169, 320.022 159.764 C 319.990 158.695, 330.942 153.338, 339.829 150.076 C 352.725 145.342, 365.415 142.825, 377.241 142.655 C 383.148 142.570, 387.986 142.147, 387.991 141.714 C 388.004 140.625, 380.073 137.333, 373.058 135.515 C 365.512 133.560, 354.676 133.591, 338.709 135.615 C 326.750 137.131, 325.797 137.126, 324.051 135.546 C 320.984 132.770, 319.636 128.549, 321.002 125.997 C 323.781 120.803, 338.749 117.385, 351.597 119.010 C 370.325 121.378, 385.467 128.884, 400.748 143.377 C 404.737 147.160, 408 149.833, 408 149.318 C 408 147.790, 401.381 137.262, 397.811 133.112 C 390.144 124.198, 377.453 115.034, 365.500 109.780 C 354.550 104.967, 334.600 101, 321.348 101 C 315.445 101, 313 99.318, 313 95.257 C 313 89.079, 328.477 79.295, 348.432 72.858 C 360.224 69.054, 359.488 68.175, 344.426 68.070 C 319.109 67.894, 289.921 77.167, 271.595 91.209 C 267.798 94.119, 263.970 97.044, 263.090 97.710 C 262.071 98.480, 260.955 98.590, 260.022 98.014 C 258.775 97.243, 258.744 96.406, 259.817 92.393 C 260.649 89.285, 260.741 87.341, 260.089 86.689 C 259.546 86.146, 254.578 85.483, 249.050 85.217 C 241.370 84.847, 239 84.405, 239 83.343 C 239 81.021, 254.641 65.497, 262.303 60.214 C 266.261 57.485, 273.212 53.390, 277.750 51.115 C 282.288 48.839, 286 46.758, 286 46.489 C 286 45.302, 274.841 46.283, 268.021 48.068 M 250.503 107.529 C 249.445 113.790, 248.148 117.371, 245.412 121.590 C 242.500 126.082, 233.666 133, 230.842 133 C 228.551 133, 228.302 133.693, 227.668 141.837 L 227.174 148.173 229.837 147.539 C 235.778 146.125, 247.587 139.708, 251.159 135.954 C 257.677 129.102, 258.121 123.022, 253.127 109.029 L 251.174 103.558 250.503 107.529 M 319.500 111.565 C 305.490 113.469, 294.612 117.101, 279.244 125.007 C 271.953 128.757, 264.219 132.125, 262.056 132.490 C 258.738 133.051, 258.024 133.614, 257.477 136.103 C 257.121 137.725, 255.323 141.290, 253.482 144.026 C 251.376 147.156, 250.629 149, 251.466 149 C 254.013 149, 263.570 143.319, 272.756 136.345 C 287.927 124.827, 303.136 118.358, 324.250 114.442 C 330.731 113.240, 334 112.192, 334 111.317 C 334 109.756, 332.644 109.779, 319.500 111.565 M 220.615 126.846 C 220.256 129.548, 218.943 133.276, 217.697 135.130 C 214.728 139.546, 206.875 144.659, 200 146.651 C 192.975 148.687, 192.666 148.893, 194.076 150.592 C 194.756 151.411, 194.992 153.291, 194.637 155.066 C 194.074 157.880, 194.205 158.071, 196.262 157.430 C 201.825 155.697, 203.552 154.695, 206.672 151.386 C 209.290 148.610, 210.132 148.181, 210.595 149.388 C 210.919 150.232, 210.503 152.291, 209.669 153.962 C 207.829 157.649, 208.834 157.768, 214.383 154.516 C 221.853 150.138, 226.001 143.806, 225.999 136.782 C 225.999 134.150, 222.713 123.405, 221.545 122.217 C 221.392 122.061, 220.973 124.144, 220.615 126.846 M 327.789 147.366 C 306.172 154.818, 283.610 173.884, 274.116 192.721 C 272.946 195.042, 270.754 197.654, 269.244 198.525 C 266.564 200.071, 266.640 200.095, 272.500 199.590 C 281.218 198.838, 296.422 194.743, 306.379 190.466 C 311.142 188.420, 315.254 186.398, 315.517 185.972 C 316.065 185.085, 303.127 187.798, 291.137 191.084 C 286.653 192.313, 282.725 193.059, 282.409 192.742 C 281.268 191.601, 285.775 183.372, 290.940 177.167 C 299.937 166.358, 316.687 154.976, 333.030 148.565 C 337.138 146.953, 340.928 145.267, 341.450 144.817 C 343.592 142.974, 336.914 144.220, 327.789 147.366 M 169.500 146.912 C 167.300 147.940, 161.728 152.173, 157.118 156.318 C 152.446 160.520, 145.893 165.255, 142.311 167.019 C 136.575 169.842, 135.918 170.468, 136.192 172.841 C 136.474 175.272, 136.843 175.480, 140.500 175.263 C 145.918 174.943, 156.473 169.562, 168.371 161.057 C 173.800 157.176, 178.637 154, 179.121 154 C 180.567 154, 180.119 156.210, 178.250 158.296 C 176.541 160.205, 176.581 160.233, 180 159.519 C 187.557 157.942, 194.292 152.899, 192.567 150.109 C 191.540 148.447, 181.131 144.999, 177.212 145.022 C 175.171 145.034, 171.700 145.885, 169.500 146.912 M 241.139 162.285 C 234.340 165.663, 229.273 168.591, 229.880 168.793 C 231.638 169.379, 237.892 167, 243.993 163.425 C 249.207 160.369, 255.160 156.015, 254 156.106 C 253.725 156.127, 247.937 158.908, 241.139 162.285 M 184.889 169.750 C 184.828 170.162, 184.865 173.464, 184.971 177.088 C 185.434 192.868, 179.646 199.831, 164.120 202.170 C 157.538 203.162, 157.447 203.220, 148.159 212.334 C 139.651 220.682, 138.714 221.333, 137.659 219.631 C 134.011 213.750, 133.530 213.500, 125.840 213.500 C 121.803 213.500, 117.487 213.868, 116.250 214.317 C 112.429 215.706, 113.672 213.164, 117.622 211.513 C 123.284 209.148, 130.759 209.577, 136.863 212.619 L 142.118 215.238 144.554 212.949 C 151.535 206.391, 153.891 194.537, 149.866 186.222 C 147.735 181.822, 147.723 181.814, 143.366 182.407 C 128.921 184.370, 130.322 183.777, 129.006 188.479 C 126.629 196.969, 122.567 202.434, 114.296 208.269 C 103.746 215.712, 96.668 222.895, 98.139 224.668 C 99.819 226.692, 101.192 226.342, 108.623 222 C 117.423 216.858, 122.703 216.550, 127.077 220.923 C 130.666 224.512, 130.871 228.406, 127.720 233.102 C 125.463 236.466, 124.660 236.844, 113.193 239.949 C 108.248 241.287, 105.337 243.810, 104.392 247.574 C 103.853 249.721, 104.396 250.863, 107.367 253.833 L 111 257.467 111 253.233 C 111 250.756, 111.468 249, 112.129 249 C 112.750 249, 115.001 250.575, 117.132 252.500 C 120.647 255.676, 124 257.053, 124 255.321 C 124 254.948, 123.464 253.159, 122.808 251.346 C 122.153 249.533, 121.904 247.763, 122.255 247.412 C 122.606 247.061, 126.219 249.524, 130.284 252.887 C 134.349 256.249, 138.029 259, 138.461 259 C 139.333 259, 138.597 249.917, 137.407 246 C 136.772 243.908, 137.587 244.356, 142.405 248.750 C 149.775 255.472, 151.440 255.597, 150.739 249.378 C 150.358 245.998, 149.407 243.945, 147.199 241.737 C 144.303 238.841, 143.642 238.760, 140 240.847 C 134.984 243.723, 131.196 245.013, 129.585 244.394 C 128.221 243.871, 129.192 243.251, 133.432 241.939 C 139.687 240.004, 153.780 231.225, 155.758 228.031 C 157.308 225.530, 158.521 225.476, 161.011 227.796 C 162.891 229.547, 162.856 229.582, 159.604 229.202 C 156.798 228.874, 155.921 229.303, 154.067 231.906 C 152.855 233.608, 151.332 235.014, 150.682 235.032 C 150.032 235.049, 148.636 235.717, 147.581 236.516 C 145.694 237.944, 145.693 238.004, 147.564 240.071 C 148.611 241.227, 151.445 243.508, 153.862 245.139 L 158.256 248.105 157.796 242.553 C 157.257 236.051, 158.230 235.544, 162.894 239.901 L 166 242.802 166 238.335 C 166 235.879, 165.511 232.956, 164.914 231.840 C 163.935 230.010, 164.058 229.880, 166.164 230.520 C 167.449 230.911, 169.429 232.078, 170.564 233.115 C 173.792 236.062, 174.324 235.416, 173.618 229.410 C 172.866 223.012, 174.126 222.483, 177.500 227.782 C 180.033 231.761, 180.772 231.805, 180.205 227.943 C 179.621 223.966, 176.502 222.011, 169.603 221.299 C 163.720 220.691, 163.081 219.580, 167.995 218.501 C 172.013 217.619, 181.007 220.350, 184.383 223.479 C 187.877 226.717, 188.124 226.655, 186.805 222.870 C 186.082 220.796, 184.029 218.692, 180.723 216.637 L 175.732 213.535 179.116 212.753 C 180.977 212.324, 186.550 211.906, 191.500 211.826 C 199.370 211.699, 201.128 212.004, 205.500 214.251 C 217.602 220.472, 222.842 231.959, 218.513 242.782 L 217.026 246.500 221.007 242.128 C 225.715 236.958, 227.450 231.447, 226.537 224.564 C 225.879 219.604, 225.886 219.587, 227.902 221.411 C 231.292 224.479, 233.296 231.224, 232.811 237.931 C 232.467 242.685, 232.640 243.714, 233.640 242.884 C 235.702 241.172, 240.001 231.810, 239.990 229.054 C 239.976 225.398, 235.748 216.956, 232.376 213.851 C 227.839 209.672, 219.836 205, 217.215 205 L 214.822 205 217.411 208.077 C 218.835 209.769, 220 211.545, 220 212.024 C 220 212.503, 216.963 211.456, 213.250 209.697 C 206.631 206.562, 206.249 206.504, 193.600 206.723 C 179.296 206.970, 172.600 208.420, 164.265 213.076 C 161.386 214.684, 158.461 215.985, 157.765 215.967 C 154.102 215.870, 170.040 206.683, 178.500 204.014 C 184.018 202.274, 188.661 198.584, 190.930 194.138 C 193.497 189.106, 195.312 178.567, 194.521 173.290 L 193.877 169 189.439 169 C 186.997 169, 184.950 169.338, 184.889 169.750 M 167.314 172.250 C 165.642 174.851, 164 178.262, 164 179.136 C 164 179.635, 165.112 180.549, 166.470 181.168 C 169.768 182.671, 172 180.817, 172 176.578 C 172 172.088, 169.125 169.433, 167.314 172.250 M 225.500 180.809 C 219.450 183.444, 213.150 186.347, 211.500 187.260 L 208.500 188.920 211.739 188.960 C 216.413 189.018, 223.887 185.908, 230.900 180.989 C 240.061 174.563, 239.853 174.556, 225.500 180.809 M 237.967 189.959 C 237.124 190.453, 231.274 191.839, 224.967 193.040 C 218.660 194.240, 212.150 195.811, 210.500 196.530 C 207.716 197.743, 208.117 197.843, 216.072 197.918 C 225.984 198.013, 232.052 196.305, 237.082 192.004 C 240.500 189.081, 240.852 188.269, 237.967 189.959 M 294.434 198.765 C 293.848 199.169, 291.977 201.525, 290.276 204 C 281.790 216.352, 263.741 226.966, 251.145 227.014 C 244.752 227.038, 243 227.920, 243 231.117 C 243 233.916, 243.149 234, 248.074 234 C 254.050 234, 266.315 230.101, 273.808 225.820 C 283.566 220.244, 294.292 208.470, 297.558 199.750 C 298.242 197.925, 296.466 197.365, 294.434 198.765 M 319.090 205.691 C 319.178 210.377, 319.204 210.417, 320.119 207.250 C 320.951 204.367, 321.478 203.987, 324.779 203.885 L 328.500 203.770 324.966 203.078 C 323.022 202.697, 320.885 202.047, 320.216 201.634 C 319.322 201.081, 319.024 202.154, 319.090 205.691 M 329.818 207.564 C 330.088 209.878, 330.582 210.818, 331.204 210.196 C 332.408 208.992, 331.867 204.777, 330.449 204.311 C 329.796 204.097, 329.557 205.328, 329.818 207.564 M 339 211.567 C 339 213.768, 339.321 214.036, 341.250 213.443 C 344.526 212.436, 344.716 211.997, 342.557 210.418 C 339.788 208.393, 339 208.647, 339 211.567 M 290.123 217.828 C 287.844 221.028, 287.685 220.522, 294.766 232.555 C 300.824 242.849, 303.425 252.405, 303.399 264.270 C 303.376 274.660, 304.360 276.211, 306.695 269.467 C 311.271 256.249, 310.404 243.682, 304.005 230.500 C 300.236 222.734, 294.742 215, 292.995 215 C 292.523 215, 291.230 216.273, 290.123 217.828 M 347.731 224.603 C 347.399 224.934, 347.580 226.396, 348.134 227.851 C 348.687 229.307, 348.996 232.748, 348.820 235.499 C 348.536 239.940, 348.724 240.500, 350.500 240.500 C 353.189 240.500, 354.866 234.132, 353.282 229.935 C 352.059 226.696, 352.941 225.529, 355.901 226.469 C 358.036 227.146, 358.966 229.795, 358.986 235.250 C 359 238.956, 359.047 239, 363 239 C 365.676 239, 367 238.557, 367 237.661 C 367 236.924, 364.403 233.549, 361.228 230.161 C 356.249 224.847, 354.966 224, 351.895 224 C 349.936 224, 348.062 224.271, 347.731 224.603 M 110.044 228.553 C 101.310 232.404, 96.930 238.304, 95.608 248 C 94.491 256.198, 98.048 262.921, 99.467 255.294 C 100.495 249.770, 103.817 242.521, 106.457 240.041 C 107.719 238.855, 111.083 237.269, 113.932 236.518 C 120.418 234.807, 122.182 233.365, 121.801 230.086 C 121.539 227.833, 120.985 227.470, 117.500 227.265 C 115.300 227.135, 111.945 227.715, 110.044 228.553 M 87.667 234.667 C 86.806 235.527, 86.826 246.746, 87.693 249.991 C 88.219 251.958, 88.731 250.798, 90.122 244.491 C 91.092 240.096, 91.911 235.938, 91.943 235.250 C 92.003 233.944, 88.823 233.511, 87.667 234.667 M 368 239.385 C 368 240.190, 366.658 241.136, 365 241.500 C 363.350 241.862, 362 242.322, 362 242.522 C 362 242.722, 362.964 244.520, 364.143 246.518 C 365.624 249.027, 366.286 251.825, 366.286 255.575 C 366.286 260.208, 366.559 261, 368.156 261 C 369.185 261, 370.917 260.444, 372.005 259.765 C 373.707 258.702, 374.212 258.858, 375.630 260.882 C 377.057 262.920, 377.844 263.156, 381.521 262.652 C 385.631 262.089, 385.784 262.168, 386.382 265.160 C 387.433 270.417, 387.070 275.784, 385.377 280.015 C 383.861 283.806, 383.869 284.197, 385.500 286 C 387.631 288.355, 395.440 291.464, 396.923 290.547 C 398.985 289.273, 397.968 285.227, 392.872 274.423 C 385.028 257.795, 374.375 241.341, 369.903 238.948 C 368.437 238.164, 368 238.264, 368 239.385 M 288.802 249.784 L 286.319 254.569 289.735 259.034 C 291.614 261.491, 293.567 263.650, 294.076 263.833 C 295.348 264.292, 295.250 249.336, 293.965 246.934 C 292.415 244.038, 291.529 244.527, 288.802 249.784 M 371 250 C 371 253.281, 372.072 253.823, 373.989 251.513 C 375.496 249.697, 374.625 247, 372.531 247 C 371.497 247, 371 247.973, 371 250 M 163.582 263.237 C 161.977 264.433, 158.472 266.556, 155.792 267.956 C 151.106 270.402, 150.808 270.822, 148.022 278.902 C 144.325 289.622, 143.500 290.434, 136.624 290.116 C 131.238 289.866, 126.616 291.509, 121.573 295.467 C 117.818 298.414, 120.878 298.086, 126.443 294.945 C 131.357 292.172, 132.794 291.818, 137.541 292.212 C 141.690 292.556, 143.316 292.286, 144.342 291.082 C 147.052 287.901, 152 278.197, 152 276.063 C 152 272.724, 153.839 270, 156.093 270 C 157.206 270, 160.228 267.985, 162.808 265.523 C 167.898 260.666, 168.190 259.804, 163.582 263.237 M 283.724 269.470 L 280.948 272.958 283.474 276.959 C 284.863 279.160, 286 281.419, 286 281.980 C 286 282.541, 286.450 283, 287 283 C 287.550 283, 288 281.256, 288 279.125 C 288 276.994, 288.253 273.956, 288.562 272.375 C 288.888 270.709, 288.572 268.760, 287.812 267.741 C 286.601 266.118, 286.287 266.250, 283.724 269.470 M 378.561 267.750 C 378.987 268.712, 379.605 271.975, 379.935 275 L 380.534 280.500 382.166 277.495 C 383.630 274.800, 384.401 270.728, 384.106 267.250 C 384.046 266.541, 382.655 266, 380.893 266 C 378.305 266, 377.916 266.293, 378.561 267.750 M 308.693 275.746 C 308.456 276.161, 307.699 278.300, 307.010 280.500 C 304.898 287.245, 299.227 297.274, 294.419 302.772 C 291.903 305.647, 289.487 308, 289.050 308 C 288.613 308, 287.963 306.169, 287.605 303.931 C 287.104 300.797, 286.557 299.938, 285.227 300.191 C 283.858 300.453, 283.379 301.969, 282.914 307.510 C 282.271 315.186, 280.473 320.202, 276.499 325.413 C 272.017 331.289, 269.066 330.930, 269 324.500 C 268.983 322.850, 268.548 320.833, 268.033 320.019 C 266.343 317.347, 261.808 321.871, 259.949 328.082 C 257.668 335.701, 254.572 341.362, 250.406 345.528 C 245.479 350.454, 244.428 349.721, 244.839 341.650 C 245.306 332.486, 243.842 332.831, 234.866 344 C 229.461 350.725, 228.305 353.710, 227.705 362.500 C 227.404 366.900, 226.844 371.516, 226.461 372.757 C 225.900 374.571, 226.562 375.750, 229.828 378.757 C 233.273 381.929, 233.997 383.306, 234.580 387.785 C 235.261 393.022, 237.603 397.189, 240.828 398.900 C 241.916 399.478, 244.594 399.133, 248.500 397.911 C 254.094 396.162, 254.585 396.148, 255.750 397.708 C 256.438 398.629, 257 400.586, 257 402.056 C 257 403.527, 257.933 405.916, 259.073 407.365 C 262.248 411.402, 268.309 411.063, 274.641 406.495 C 277.313 404.567, 280.079 402.712, 280.787 402.373 C 282.366 401.618, 285.694 404.507, 287.690 408.367 C 289.144 411.178, 289.300 411.224, 295.155 410.562 C 298.444 410.190, 301.680 409.676, 302.345 409.421 C 303.011 409.166, 304.443 406.379, 305.528 403.228 L 307.500 397.500 316.671 397 C 321.716 396.725, 326.105 396.236, 326.425 395.913 C 326.746 395.590, 327.482 392.759, 328.062 389.622 C 328.642 386.486, 329.904 382.064, 330.867 379.797 C 332.572 375.783, 332.747 375.673, 337.559 375.588 L 342.500 375.500 343.361 368.500 C 344.852 356.384, 345.740 353.987, 349.184 352.786 C 352.226 351.725, 352.247 351.669, 351.654 346.108 C 348.529 316.801, 341.890 299.986, 327.938 286.033 C 321.008 279.104, 310.103 273.274, 308.693 275.746 M 270.024 285.952 C 267.856 290.203, 267.422 293, 268.933 293 C 269.446 293, 270.135 292.150, 270.465 291.111 C 271.550 287.690, 275.782 284, 278.619 284 C 282.351 284, 281.334 283.406, 276.274 282.631 C 272.132 281.997, 272.009 282.062, 270.024 285.952 M 388.443 301.080 C 388.400 308.304, 388.697 310.670, 389.601 310.323 C 390.964 309.800, 394.456 302.081, 395.402 297.500 C 395.968 294.758, 395.698 294.365, 392.261 292.935 L 388.500 291.371 388.443 301.080 M 398.741 296.918 C 398.383 300.870, 397.147 304.821, 395.021 308.809 L 391.837 314.782 394.565 319.141 C 396.065 321.538, 398.577 324.978, 400.146 326.785 C 401.716 328.591, 403.032 330.841, 403.070 331.785 C 403.129 333.212, 403.285 333.164, 404 331.500 C 406.628 325.385, 403.215 291, 399.981 291 C 399.594 291, 399.036 293.663, 398.741 296.918 M 272.500 296 C 272.840 296.550, 274.190 297, 275.500 297 C 276.810 297, 278.160 296.550, 278.500 296 C 278.869 295.404, 277.657 295, 275.500 295 C 273.343 295, 272.131 295.404, 272.500 296 M 256.883 298.680 C 255.013 300.871, 252.536 306.869, 253.219 307.552 C 253.488 307.821, 254.905 306.232, 256.368 304.020 C 259.151 299.815, 259.352 299.720, 265 299.924 C 269.288 300.078, 267.329 298.525, 261.969 297.521 C 259.232 297.008, 258.088 297.269, 256.883 298.680 M 241.073 314.635 C 237.998 318.544, 238.561 319.547, 242.140 316.536 C 244.112 314.876, 245.879 314.142, 246.890 314.562 C 249.681 315.722, 256.238 317.087, 257.306 316.731 C 258.283 316.406, 245.942 312, 244.052 312 C 243.553 312, 242.212 313.186, 241.073 314.635 M 230.966 318.154 C 230.303 319.444, 228.352 322.036, 226.630 323.914 L 223.500 327.327 227.500 324.972 C 230.848 323, 232.661 321.989, 235.851 320.316 C 236.043 320.215, 235.295 319.159, 234.187 317.970 L 232.173 315.808 230.966 318.154 M 391.472 327.305 C 391.095 329.612, 389.873 333.151, 388.755 335.168 C 386.823 338.656, 386.872 342, 388.855 342 C 390.401 342, 397.041 334.639, 397.646 332.254 C 398.051 330.653, 397.346 329.019, 395.186 326.559 L 392.157 323.110 391.472 327.305 M 217.119 337.774 C 211.609 350.006, 210.156 358.915, 211.791 370.427 C 213.937 385.532, 223.750 401.116, 236.500 409.666 C 238.700 411.141, 242.483 413.958, 244.908 415.924 C 249.075 419.305, 249.734 419.505, 256.991 419.587 C 263.898 419.665, 265.126 419.990, 269.263 422.837 C 274.681 426.565, 275.344 426.624, 282.068 423.973 L 287.210 421.946 291.731 424.473 C 297.288 427.579, 297.374 427.579, 301.411 424.500 C 305.469 421.405, 306.187 421.409, 312.958 424.560 L 318.416 427.101 321.530 423.391 C 324.513 419.838, 324.786 419.730, 327.972 420.840 C 332.831 422.534, 333.031 422.191, 328.558 419.834 C 324.202 417.537, 324.199 417.538, 319.991 423.884 L 318.483 426.159 312.329 423.009 L 306.176 419.860 301.938 422.930 C 299.607 424.619, 297.270 426, 296.744 426 C 296.218 426, 294.086 424.652, 292.007 423.005 L 288.225 420.010 282.584 422.505 C 275.708 425.546, 273.863 425.611, 271.407 422.898 C 268.137 419.284, 264.413 418, 257.198 418 C 251.076 418, 249.857 417.663, 246.399 415.016 C 244.254 413.375, 240.250 410.503, 237.500 408.635 C 224.042 399.493, 215.625 386.071, 213.032 369.620 C 212.502 366.254, 212.407 361.250, 212.821 358.500 C 213.560 353.595, 213.636 353.505, 216.853 353.763 C 218.656 353.907, 220.890 353.583, 221.816 353.043 C 223.175 352.250, 222.889 352.055, 220.332 352.030 C 216.134 351.990, 214 351.098, 214 349.384 C 214 348.612, 216.054 344.182, 218.564 339.540 C 222.910 331.503, 223.248 331.144, 225.629 332.049 C 227.005 332.572, 229.563 332.955, 231.315 332.901 C 233.913 332.820, 233.441 332.524, 228.750 331.293 C 225.588 330.463, 223 329.383, 223 328.892 C 223 326.135, 221.002 329.153, 217.119 337.774 M 397.014 338.478 C 395.782 340.471, 393.700 342.806, 392.387 343.666 C 391.074 344.526, 390 345.660, 390 346.185 C 390 346.710, 391.419 350.548, 393.154 354.715 L 396.308 362.290 398.155 358.689 C 401.517 352.135, 403.145 343.985, 401.883 340.026 C 400.197 334.740, 399.467 334.508, 397.014 338.478 M 387.022 353.172 C 387.002 357.374, 386.597 358.189, 383 361.268 C 380.800 363.151, 379 364.986, 379 365.346 C 379 366.754, 384.671 365.888, 387.750 364.011 C 391.606 361.660, 391.889 359.177, 389.022 352.859 L 387.044 348.500 387.022 353.172 M 389.945 364.566 C 388.188 366.684, 383.554 369, 381.075 369 C 379.330 369, 379.136 369.450, 379.669 372.250 C 380.447 376.332, 383.736 383, 384.971 383 C 385.483 383, 387.499 380.144, 389.451 376.654 C 394.050 368.430, 394.429 359.163, 389.945 364.566 M 372.127 372.500 C 370.650 377.796, 370.708 378.674, 372.582 379.393 C 374.318 380.059, 378 380.219, 378 379.628 C 378 379.424, 376.929 376.836, 375.621 373.878 L 373.242 368.500 372.127 372.500 M 371.571 387.892 C 371.945 390.976, 372.685 394.333, 373.215 395.351 C 374.120 397.090, 374.349 397.040, 376.972 394.527 C 380.729 390.928, 383.710 385.291, 382.468 384.135 C 381.936 383.640, 379.113 383.021, 376.196 382.759 L 370.891 382.283 371.571 387.892 M 364.711 392.496 C 363.220 394.364, 362 396.142, 362 396.447 C 362 396.751, 363.800 397, 366 397 C 370.399 397, 370.596 396.647, 368.711 392.164 L 367.422 389.098 364.711 392.496 M 366 399.882 C 362.941 400.422, 362.500 400.868, 362.500 403.417 C 362.500 405.021, 362.957 406.486, 363.516 406.672 C 364.713 407.071, 372 401.278, 372 399.927 C 372 398.932, 371.402 398.927, 366 399.882 M 358.727 401.633 C 358.376 402.201, 357.005 405.649, 355.682 409.295 C 353.128 416.331, 353.960 417.103, 358.511 411.921 C 359.605 410.675, 359.938 409.985, 359.250 410.387 C 357.714 411.285, 357.674 410.234, 359.090 406.170 C 360.204 402.977, 359.939 399.672, 358.727 401.633 M 338.495 415.750 C 337.518 418.363, 336.241 421.175, 335.658 422 C 334.819 423.185, 334.866 423.262, 335.882 422.367 C 337.613 420.840, 342.122 411, 341.090 411 C 340.640 411, 339.472 413.137, 338.495 415.750 M 344 412 C 344 412.550, 345.998 413, 348.441 413 C 350.884 413, 353.160 412.550, 353.500 412 C 353.881 411.384, 352.177 411, 349.059 411 C 346.277 411, 344 411.450, 344 412" stroke="none" fill="black" fill-rule="evenodd"/>
</svg>