<svg xmlns="http://www.w3.org/2000/svg" width="512" height="512" viewBox="0 0 512 512" version="1.1">
	<path d="M 155.487 67.740 C 147.321 70.660, 141.762 74.449, 134.767 81.864 C 118.718 98.877, 115.686 119.914, 126.004 142.669 L 128.854 148.955 122.177 161.741 C 102.015 200.352, 96.237 220.312, 97.254 247.839 C 97.636 258.162, 98.306 263.210, 99.995 268.500 C 107.393 291.661, 127.265 315.845, 149.914 329.250 C 156.186 332.962, 162.317 336, 163.537 336 C 166.687 336, 167.511 337.516, 168.975 346 C 169.686 350.125, 170.904 355.300, 171.682 357.500 C 174.757 366.202, 174.921 368.681, 172.632 371.888 C 171.460 373.531, 168.025 376.764, 165 379.072 C 154.972 386.723, 136 406.778, 136 409.727 C 136 411.594, 147.331 424.229, 153.762 429.534 C 162.319 436.592, 179.692 445.170, 192 448.413 C 206.677 452.281, 217.485 453.329, 236 452.680 C 272.850 451.389, 296.874 442.390, 338.912 414.130 C 368.936 393.946, 384.838 386.336, 406.084 381.983 C 411.110 380.953, 415.428 379.905, 415.679 379.654 C 415.930 379.403, 413.677 373.416, 410.671 366.349 C 400.029 341.325, 399.753 338.354, 405.995 316 C 412.871 291.373, 414.976 270.813, 413.037 247.222 C 411.030 222.806, 406.496 205.754, 395.828 182.500 C 392.548 175.350, 389.701 169.050, 389.501 168.500 C 389.301 167.950, 391.898 165.685, 395.272 163.466 C 402.524 158.695, 409.087 149.808, 411.707 141.209 C 414.390 132.404, 413.975 118.403, 410.760 109.272 C 404.037 90.174, 389.806 75.557, 371.857 69.316 C 354.770 63.373, 333.278 67.887, 320.434 80.116 L 317.368 83.036 307.702 78.519 C 288.103 69.360, 272.407 66.412, 248 67.307 C 230.275 67.957, 216.828 70.612, 200.615 76.663 C 189.738 80.723, 190.561 80.874, 186.832 74.137 C 182.950 67.124, 166.563 63.779, 155.487 67.740 M 237.500 73.060 C 214.153 76.230, 188.806 85.999, 172.928 97.947 C 164.225 104.496, 152.934 116.495, 147.349 125.128 C 144.867 128.964, 136.120 145.942, 127.910 162.856 C 110.120 199.509, 108.059 205.930, 107.262 227.176 C 106.656 243.316, 107.957 253.935, 112.048 266.237 C 116.187 278.685, 124.913 294.328, 131.160 300.500 L 134.196 303.500 132.218 299.500 C 125.692 286.302, 124.628 282.066, 124.563 269 C 124.502 256.923, 124.609 256.269, 127.734 249.672 L 130.968 242.843 128.108 239.172 C 124.266 234.241, 123 229.994, 123 222.043 C 123 216.460, 123.550 214.292, 126.409 208.610 C 130.294 200.888, 134.152 189.101, 136.542 177.654 C 137.865 171.312, 138.867 169.046, 141.764 165.839 C 146.203 160.926, 149.813 159, 154.582 159 C 162.717 159, 168.781 171.166, 165.667 181.240 C 163.829 187.185, 159.306 195.002, 157.708 194.995 C 157.044 194.992, 155.825 192.854, 155 190.245 C 153.773 186.363, 153.030 185.445, 150.914 185.199 C 149.322 185.014, 147.804 185.590, 146.963 186.699 C 145.795 188.238, 145.800 188.318, 146.998 187.250 C 149.546 184.978, 152.026 185.818, 153.551 189.468 C 155.562 194.281, 155.419 195.108, 152.750 194.103 C 149.622 192.925, 146.157 194.458, 144.985 197.538 C 143.570 201.260, 143.743 202.484, 146.059 205.139 L 148.119 207.500 146.476 204.799 C 144.720 201.910, 145.125 199.018, 147.637 196.506 C 149.830 194.313, 153.173 194.690, 155.763 197.422 L 158.026 199.809 155.415 207.154 C 152.128 216.404, 149.372 221.183, 140.867 232.385 C 133.284 242.374, 129.316 249.991, 127.712 257.639 C 126.307 264.334, 128.589 278.880, 132.473 288 C 133.996 291.575, 136.428 297.822, 137.877 301.882 C 139.582 306.660, 141.367 309.832, 142.936 310.873 C 145.243 312.405, 145.332 312.387, 144.793 310.491 C 144.482 309.396, 143.903 307.713, 143.506 306.750 C 142.917 305.318, 143.318 305, 145.712 305 C 150.930 305, 158.826 302.123, 159.509 299.973 C 160.312 297.441, 158.271 287.455, 156.695 286.207 C 156.038 285.687, 153.700 284.691, 151.500 283.995 C 135.527 278.941, 124.309 265.555, 130.984 259.515 C 132.677 257.982, 133.886 257.837, 139.234 258.522 C 147.192 259.541, 158.146 259.574, 169 258.610 C 183.433 257.329, 189.557 260.627, 187.566 268.610 C 186.286 273.744, 178.301 280.331, 170.200 282.936 C 162.196 285.509, 162.143 285.610, 163.944 294.941 C 164.859 299.683, 167.033 302, 170.568 302 C 171.770 302, 177.197 303.386, 182.627 305.080 C 195.077 308.963, 202.019 308.742, 211.312 304.167 C 218.625 300.567, 231.003 288.671, 234.117 282.250 C 235.434 279.535, 236.844 278, 238.020 278 C 239.165 278, 239.982 277.153, 240.180 275.760 C 240.645 272.503, 243.731 272.315, 245.163 275.457 C 246.720 278.876, 243.923 288.293, 240.148 292.338 C 234.351 298.552, 219.023 310.096, 212.454 313.196 C 206.214 316.141, 204.628 316.469, 197 316.389 C 190.504 316.321, 186.750 315.676, 181.075 313.650 C 173.237 310.853, 164.940 310.250, 157.628 311.946 C 152.537 313.127, 151.657 314.161, 152.495 317.975 C 153.350 321.872, 158.619 328.084, 160.467 327.374 C 161.250 327.074, 162.098 327.734, 162.482 328.942 C 162.846 330.090, 163.561 330.771, 164.070 330.457 C 164.580 330.142, 165.997 330.585, 167.221 331.442 C 168.444 332.299, 170.673 333, 172.173 333 C 173.704 333, 175.361 333.768, 175.950 334.750 C 176.950 336.417, 177.050 336.417, 178.050 334.750 C 179.397 332.504, 181.595 332.504, 182.460 334.750 C 183.102 336.417, 183.181 336.417, 184.117 334.750 C 185.366 332.525, 186.910 332.525, 188.640 334.750 C 189.937 336.417, 190.051 336.417, 191.050 334.750 C 191.760 333.566, 193.350 333, 195.966 333 C 198.093 333, 200.013 332.460, 200.234 331.799 C 200.454 331.138, 201.729 330.557, 203.067 330.508 C 204.405 330.458, 208.714 328.767, 212.643 326.750 C 219.941 323.003, 228.594 320.261, 229.683 321.350 C 230.017 321.684, 229.438 322.315, 228.395 322.753 C 227.353 323.190, 224.700 324.662, 222.500 326.024 L 218.500 328.500 224.500 329.149 C 227.800 329.505, 230.903 329.551, 231.396 329.249 C 231.899 328.942, 232.005 329.974, 231.638 331.601 L 230.984 334.500 232.404 332.013 C 233.185 330.644, 233.612 329.182, 233.353 328.763 C 233.094 328.343, 233.359 328, 233.941 328 C 234.523 328, 235 328.745, 235 329.655 C 235 331.195, 235.127 331.195, 236.829 329.655 C 239.874 326.899, 241.502 327.573, 239.477 330.750 L 237.725 333.500 240.612 330.903 C 244.561 327.352, 248.192 325, 249.723 325 C 251.360 325, 251.378 328.200, 249.750 329.921 C 249.063 330.647, 250.300 330.150, 252.500 328.816 C 254.700 327.482, 258.914 325.406, 261.865 324.203 L 267.230 322.015 266.739 324.583 L 266.248 327.152 269.374 324.227 C 273.031 320.806, 277.070 318, 278.339 318 C 278.831 318, 278.998 319.229, 278.711 320.731 C 278.255 323.119, 278.347 323.246, 279.447 321.742 C 280.545 320.240, 286.782 317, 288.575 317 C 288.926 317, 288.935 317.788, 288.594 318.750 C 288.220 319.804, 288.766 319.505, 289.965 318 C 291.060 316.625, 291.966 315.163, 291.978 314.750 C 292.015 313.484, 295 313.920, 295 315.191 C 295 315.885, 295.522 315.707, 296.250 314.765 C 296.938 313.875, 302 310.362, 307.500 306.958 C 335.527 289.611, 351.906 269.965, 361.852 241.765 C 367.167 226.698, 368.458 218.396, 368.480 199.169 C 368.499 183.004, 368.366 181.736, 366.500 180.305 C 365.072 179.209, 364.868 178.633, 365.787 178.290 C 366.495 178.025, 368.295 176.799, 369.787 175.564 C 371.279 174.330, 373.363 172.850, 374.418 172.276 C 376.084 171.370, 375.821 171.157, 372.418 170.657 C 370.263 170.341, 364.675 169.808, 360 169.473 C 346.511 168.505, 346.434 168.458, 335.207 154.209 C 329.700 147.219, 323.535 139.925, 321.508 138 C 316.762 133.494, 313.657 127.306, 311.625 118.303 C 309.603 109.347, 309.569 103.076, 311.500 95.661 C 313.500 87.983, 313.441 87.526, 310.250 86.043 C 301.196 81.836, 286.408 76.558, 279.039 74.904 C 268.957 72.640, 247.580 71.691, 237.500 73.060 M 353.358 88.917 C 349.832 89.799, 343.858 93.262, 342.001 95.499 C 340.938 96.780, 341.193 96.829, 343.947 95.868 C 353.862 92.412, 367.585 101.309, 374.705 115.808 C 377.099 120.684, 377.500 122.718, 377.500 130 C 377.500 137.560, 377.171 139.095, 374.522 143.876 C 371.330 149.640, 368.725 151.853, 363.070 153.607 C 359.875 154.599, 360.182 154.661, 366 154.199 C 377.312 153.300, 384.091 148.865, 387.985 139.814 C 389.898 135.366, 390.161 133.304, 389.806 125.557 C 389.456 117.941, 388.882 115.446, 386.201 109.871 C 382.513 102.201, 375.261 94.110, 369.477 91.208 C 364.704 88.815, 357.728 87.823, 353.358 88.917 M 226.269 156.997 C 219.051 160.634, 213.764 166.311, 211.554 172.795 C 208.815 180.835, 209.962 185.915, 216.741 195.759 C 219.294 199.467, 221.472 203.625, 221.580 205 C 222.012 210.480, 224.455 217.037, 230.271 228.327 C 236.438 240.298, 239.820 244.263, 246.612 247.486 C 257.908 252.846, 274.612 243.438, 282.097 227.500 C 289.782 211.136, 287.287 196.131, 273.524 175.953 C 265.702 164.485, 262.604 161.427, 255.024 157.691 C 249.694 155.065, 247.126 154.443, 240.524 154.179 C 233.184 153.885, 231.969 154.125, 226.269 156.997 M 239.093 181.752 C 236.266 183.202, 235.204 184.768, 232.861 190.935 C 229.416 200.007, 229.731 201.323, 233.351 192.977 C 235.519 187.977, 236.629 186.635, 239.634 185.380 C 241.642 184.541, 244.233 184.096, 245.392 184.390 C 248.557 185.195, 254 190.604, 254 192.944 C 254 195.666, 252.394 195.538, 248.411 192.500 C 244.472 189.496, 243.065 189.416, 238.157 191.920 C 232.966 194.568, 231.610 197.805, 233.902 202.078 C 234.872 203.886, 236.528 205.893, 237.583 206.538 C 240.529 208.338, 247.303 206.470, 250.801 202.892 L 253.753 199.872 254.376 203.186 C 254.785 205.364, 256.271 207.515, 258.712 209.463 L 262.426 212.425 259.888 208.963 C 256.357 204.146, 254.209 197.934, 254.765 194.148 C 255.385 189.926, 251.102 183.358, 246.466 181.421 C 242.339 179.697, 243.169 179.660, 239.093 181.752 M 237.774 194.744 C 232.881 197.778, 233.053 201.942, 238.179 204.592 C 241.536 206.329, 245.420 205.818, 248.250 203.267 C 250.690 201.068, 250.438 199.067, 247.313 195.805 C 244.248 192.605, 241.682 192.320, 237.774 194.744 M 151.559 205.532 C 150.491 206.339, 150.099 207, 150.686 207 C 151.274 207, 152.315 206.325, 153 205.500 C 154.557 203.624, 154.067 203.634, 151.559 205.532 M 242.500 215 C 243.495 216.100, 244.535 217, 244.810 217 C 245.085 217, 244.495 216.100, 243.500 215 C 242.505 213.900, 241.465 213, 241.190 213 C 240.915 213, 241.505 213.900, 242.500 215 M 397.579 230.250 C 397.381 230.938, 396.721 235.023, 396.111 239.329 C 393.084 260.695, 381.887 281.416, 363.562 299.563 C 351.229 311.776, 338.873 320.185, 318 330.573 C 294.029 342.503, 276.501 348.690, 247.250 355.549 L 231 359.359 231.063 362.930 C 231.120 366.099, 231.229 366.245, 232.039 364.228 C 233.425 360.778, 235.310 360.617, 240.935 363.467 C 251.753 368.949, 259.626 379.634, 258.850 387.779 L 258.485 391.601 264.493 386.734 C 268.081 383.827, 277.346 378.518, 287.500 373.551 C 296.850 368.977, 312.825 361.179, 323 356.223 C 361.402 337.518, 385.194 317.478, 397.093 293.815 C 403.239 281.592, 405.094 273.635, 405.721 256.810 C 406.293 241.440, 405.326 234.135, 402.270 230.750 C 400.427 228.709, 398.092 228.460, 397.579 230.250 M 135 268.474 C 135 269.285, 136.436 270.691, 138.192 271.599 C 141.831 273.481, 147 275.104, 147 274.364 C 147 272.493, 144.311 269.610, 141.452 268.415 C 137.108 266.600, 135 266.620, 135 268.474 M 167 268.833 C 163.771 270.070, 162.500 271.114, 162.500 272.528 C 162.500 274.229, 163.138 274.479, 167.134 274.348 C 172.757 274.164, 181 270.721, 181 268.556 C 181 266.401, 172.932 266.560, 167 268.833 M 181.009 376.250 C 181.016 379.150, 181.992 382.197, 184.083 385.843 C 185.768 388.782, 187.390 390.944, 187.686 390.647 C 188.989 389.344, 183.599 372, 181.891 372 C 181.401 372, 181.004 373.913, 181.009 376.250" stroke="none" fill="black" fill-rule="evenodd"/>
</svg>